{"glyphs":{":":{"x_min":0,"x_max":117,"ha":117,"o":"m 41 351 q 45 347 45 343 q 45 339 41 335 q 37 330 31 330 q 26 330 23 334 q 20 338 20 343 q 20 349 23 352 q 28 355 32 355 q 37 355 41 351 z m 85 479 l 87 479 q 97 476 97 467 q 97 463 92 456 q 84 448 77 454 q 73 455 72 461 q 71 467 73 471 q 78 479 85 479 z"},"$":{"x_min":0,"x_max":371,"ha":371,"o":"m 351 696 q 351 661 279 580 q 274 575 268 568 q 261 561 257 561 q 251 561 251 565 q 251 572 264 586 q 326 655 335 691 q 336 695 336 698 q 335 701 333 703 q 331 705 322 705 q 306 705 292 700 l 279 696 l 268 675 q 260 661 224 588 q 187 515 174 488 q 174 487 195 478 q 223 467 234 456 q 246 446 246 431 q 246 414 225 396 q 210 382 190 372 q 170 361 136 350 l 106 340 l 96 315 q 76 267 73 246 q 72 239 71 237 q 70 235 66 234 q 62 234 60 237 q 59 239 59 245 q 59 264 77 308 l 88 336 l 70 336 q 20 336 20 360 q 20 374 41 388 q 60 401 62 390 l 62 389 q 62 384 51 376 q 34 364 34 358 q 34 357 42 353 q 50 350 72 350 q 85 350 91 352 q 94 353 98 360 q 102 368 108 381 q 118 406 136 442 l 151 478 q 151 479 134 487 q 77 512 77 547 q 77 564 90 584 q 109 612 158 647 q 206 682 251 701 l 267 707 l 282 734 q 293 752 299 761 q 305 770 308 770 l 310 769 q 314 769 316 765 q 316 761 304 739 q 291 720 291 716 q 296 716 301 718 q 311 720 319 720 q 333 720 339 717 q 351 711 351 696 z m 139 501 l 158 492 l 206 588 l 224 625 q 253 685 253 685 q 252 686 226 672 q 201 658 187 649 q 143 620 118 592 q 91 564 91 545 q 91 537 96 530 q 104 517 139 501 z m 116 359 l 125 362 q 185 380 217 409 q 232 424 232 432 q 232 438 224 446 q 210 458 179 469 l 168 474 l 163 464 q 153 443 138 409 q 122 375 115 360 q 115 359 116 359 z"},"?":{"x_min":0,"x_max":392,"ha":392,"o":"m 20 517 q 20 533 27 546 q 38 569 70 590 q 102 612 147 626 q 204 644 269 644 q 282 644 302 642 q 339 637 356 626 q 372 615 372 595 q 372 573 349 548 q 326 522 267 478 q 227 448 208 432 q 189 417 175 401 q 141 364 112 322 q 83 280 83 266 q 83 263 79 261 q 78 260 75 260 q 74 260 72 262 q 69 265 69 270 q 69 286 98 329 q 131 379 162 411 q 193 443 248 484 q 310 530 334 554 q 357 578 357 595 q 357 628 273 628 q 209 628 149 610 q 89 591 59 561 q 35 538 35 516 q 35 499 44 486 q 54 473 82 449 q 88 445 88 440 q 88 436 81 436 q 75 436 61 447 q 47 458 38 470 q 20 494 20 517 z m 51 223 q 51 231 57 236 q 63 241 66 235 q 68 232 66 224 q 63 217 58 217 l 55 217 q 52 217 51 221 z"},"<":{"x_min":0,"x_max":226,"ha":226,"o":"m 46 427 q 54 424 83 416 q 112 407 133 402 q 144 400 148 398 q 151 395 150 391 q 150 388 141 388 q 127 388 112 392 q 31 414 23 425 q 20 430 20 435 q 20 449 46 461 q 74 476 135 500 q 196 525 202 524 q 206 523 206 517 q 206 513 199 510 q 192 506 174 499 q 135 484 94 466 q 53 448 45 443 q 36 438 36 435 q 36 433 46 427 z"},"'":{"x_min":0,"x_max":87,"ha":87,"o":""},"=":{"x_min":0,"x_max":173,"ha":173,"o":"m 153 460 q 153 454 140 453 q 132 452 89 452 q 51 452 50 453 q 48 454 48 458 q 49 463 51 464 q 53 465 101 467 q 112 467 122 468 q 133 468 141 467 q 149 467 151 465 q 153 463 153 460 z m 95 415 q 121 415 128 414 q 135 412 135 408 q 135 404 132 403 q 128 402 106 401 q 60 399 51 399 q 25 399 22 402 q 16 410 31 412 q 46 415 95 415 z"},"a":{"x_min":0,"x_max":169,"ha":169,"o":"m 189 440 q 189 438 162 408 q 134 378 119 364 q 98 343 82 343 q 68 343 65 362 l 65 367 q 65 377 66 382 q 68 395 67 396 l 42 374 q 30 363 22 356 q 14 350 11 347 q 5 344 -1 344 q -11 344 -15 348 q -20 353 -20 362 q -20 374 -10 393 q 3 419 22 441 q 40 463 56 470 q 62 473 66 474 q 70 475 74 474 q 87 469 90 454 l 90 449 q 90 436 83 436 q 74 436 74 451 q 74 455 73 457 q 72 459 70 459 q 59 459 37 434 q 15 409 3 383 q -4 366 -4 360 q -4 355 6 363 q 16 371 46 399 q 77 428 82 430 q 86 433 91 429 q 95 425 92 415 q 87 403 84 390 q 80 376 80 369 q 80 358 84 358 q 89 358 106 374 q 124 391 151 420 q 180 449 182 449 q 184 449 186 446 q 189 443 189 440 z"},"L":{"x_min":0,"x_max":1165,"ha":1165,"o":"m 50 333 q 50 376 103 390 q 116 394 164 394 q 189 394 198 393 q 245 388 288 378 q 330 367 428 337 l 521 308 q 535 305 542 302 l 583 290 l 588 296 q 603 314 667 444 l 709 531 l 708 531 q 701 531 689 528 q 630 514 561 514 q 545 514 521 516 q 457 522 404 544 q 351 566 319 599 q 286 634 286 667 q 286 697 311 721 q 336 745 384 761 q 465 788 575 788 q 640 788 701 778 q 762 767 806 748 q 824 740 826 740 l 841 761 q 894 841 941 884 q 988 926 1022 926 q 1029 926 1032 925 q 1052 921 1063 902 q 1074 883 1074 856 q 1074 826 1063 796 q 1036 723 950 654 q 865 584 754 546 l 731 538 l 679 434 q 622 320 615 308 q 602 288 604 286 q 607 283 648 274 q 689 266 714 263 q 743 259 778 259 q 914 259 1040 340 q 1065 357 1105 386 q 1145 414 1173 435 q 1206 459 1209 459 q 1212 459 1214 455 q 1216 451 1214 448 q 1211 443 1155 402 q 1099 360 1058 333 q 965 271 876 253 q 835 244 785 244 q 739 244 711 248 q 683 251 632 263 q 592 272 592 271 q 583 260 568 243 q 554 226 543 216 q 502 176 448 154 q 393 133 336 133 q 325 133 305 135 q 250 141 196 167 q 142 193 104 231 q 66 269 54 307 q 50 319 50 333 z m 198 182 q 244 160 284 153 q 302 150 332 150 q 372 150 391 154 q 443 165 488 192 q 532 220 564 261 l 576 277 l 538 288 q 453 314 420 324 q 309 358 254 368 q 200 379 144 379 q 124 379 112 377 q 101 375 91 369 q 64 357 64 331 q 64 316 73 298 q 89 264 122 234 q 155 204 198 182 z m 309 637 q 325 606 369 578 q 413 551 467 539 q 512 530 566 530 q 608 530 647 536 q 669 539 692 544 q 716 550 719 552 l 737 584 q 753 616 772 650 q 791 683 806 707 q 816 722 816 726 q 816 730 783 742 q 750 753 722 759 q 689 766 664 768 q 639 770 596 771 q 587 772 569 772 q 524 772 488 768 q 451 763 412 753 q 367 742 339 723 q 319 710 310 696 q 302 683 302 665 q 302 657 304 652 q 305 646 309 637 z m 812 586 q 874 615 928 656 q 982 697 1012 738 q 1035 768 1047 799 q 1059 830 1059 856 q 1059 888 1042 904 q 1038 908 1034 909 q 1030 910 1022 910 q 1015 910 1009 908 q 1003 907 996 904 q 967 890 932 852 q 896 815 859 760 l 839 730 l 845 726 q 857 716 857 703 q 857 695 852 695 q 845 695 842 705 q 840 711 835 715 q 834 716 832 716 q 829 716 819 698 q 787 647 760 594 q 746 566 743 563 q 743 562 742 561 q 742 560 743 560 q 747 560 769 568 q 791 577 812 586 z"},"3":{"x_min":0,"x_max":369,"ha":369,"o":"m 20 371 q 20 387 38 412 q 56 436 97 477 q 129 509 138 516 q 148 524 152 521 q 156 520 156 516 q 156 513 151 508 q 142 500 104 462 q 67 424 58 413 q 36 385 36 371 q 36 356 62 356 q 108 358 171 399 q 230 438 259 482 q 279 511 279 532 q 279 554 257 570 q 238 582 198 589 q 180 592 174 595 q 167 598 167 603 q 167 607 172 611 q 176 615 200 628 q 223 641 263 662 q 302 682 319 693 q 333 703 329 704 q 327 706 277 706 q 218 706 198 704 q 170 702 167 704 q 164 705 164 710 q 163 714 166 715 q 169 717 206 719 q 244 721 285 721 q 324 721 336 718 q 349 714 349 704 q 349 695 330 682 q 312 670 246 635 q 195 608 195 606 q 195 604 208 602 q 252 595 274 575 q 293 559 293 530 q 293 519 290 508 q 279 478 250 446 q 222 414 181 387 q 148 365 116 353 q 84 341 60 341 q 50 341 41 344 q 31 347 26 354 q 20 361 20 371 z"},";":{"x_min":0,"x_max":142,"ha":142,"o":"m 101 452 q 98 454 97 460 q 96 465 98 469 q 101 477 110 477 l 112 477 q 122 474 122 465 q 122 459 117 454 q 109 446 101 452 z m 20 295 q 20 298 29 306 q 38 313 45 323 q 48 327 49 330 q 50 333 49 337 q 46 342 49 345 q 51 347 55 347 q 62 347 65 343 q 67 339 67 335 q 67 322 46 301 q 36 291 30 289 q 24 287 21 292 q 20 293 20 295 z"},"J":{"x_min":0,"x_max":939,"ha":939,"o":"m 194 676 q 289 751 412 810 q 536 869 664 901 q 768 927 838 927 q 901 927 939 907 q 966 893 979 872 q 992 851 992 819 q 992 782 974 726 q 952 660 896 557 q 839 454 770 351 q 759 334 761 335 q 815 373 894 418 q 972 463 983 461 q 988 461 988 455 l 988 453 q 988 451 983 448 q 978 445 968 440 q 936 425 887 396 q 838 368 805 346 q 734 298 720 280 q 686 231 636 168 q 586 104 550 64 q 456 -40 416 -40 q 408 -40 405 -38 q 398 -34 396 -31 q 394 -25 394 -20 q 394 -13 397 -5 q 413 33 501 120 q 589 206 688 281 q 716 302 723 311 q 741 334 815 449 q 863 526 904 606 q 944 685 961 736 q 976 781 976 816 q 976 833 975 842 q 974 851 970 859 q 954 892 903 905 q 882 911 834 911 q 816 911 792 909 q 673 897 530 844 q 388 790 275 715 q 218 677 173 637 q 128 597 103 563 q 64 509 64 464 q 64 399 150 358 q 194 337 262 323 q 331 309 406 305 l 431 304 l 407 310 l 380 317 q 378 319 378 324 q 378 329 381 330 q 384 331 424 322 q 464 313 474 309 q 480 307 483 305 q 486 303 486 300 l 486 298 q 486 295 482 291 q 478 288 465 288 q 451 288 439 289 q 314 293 229 315 q 153 335 110 363 q 67 391 54 431 q 50 443 50 466 q 50 479 51 488 q 52 496 56 507 q 67 539 92 574 q 105 592 137 624 q 169 657 194 676 z m 414 -24 q 424 -24 434 -19 q 487 7 598 145 q 624 176 650 210 q 675 243 684 257 l 681 255 l 650 230 q 570 167 500 96 q 431 26 414 -7 q 409 -17 409 -21 q 409 -23 410 -24 q 412 -24 414 -24 z"},"V":{"x_min":0,"x_max":859,"ha":859,"o":"m 560 869 q 572 872 596 872 q 618 871 630 864 q 641 856 649 838 q 652 828 652 805 q 652 784 649 766 q 635 686 559 475 q 504 321 486 268 q 468 215 452 159 q 439 117 431 79 q 423 41 423 25 l 423 22 q 423 18 424 18 q 425 18 435 30 q 456 54 530 171 q 639 342 722 450 q 804 558 928 693 q 1019 792 1080 847 q 1140 902 1163 907 l 1166 907 q 1172 907 1176 903 q 1179 899 1179 892 q 1179 883 1175 876 q 1171 869 1166 869 l 1164 869 q 1159 869 1159 873 q 1159 876 1164 889 q 1165 891 1164 892 q 1163 892 1160 891 q 1145 886 1094 840 q 1042 793 982 728 q 890 630 830 559 q 770 488 705 401 q 664 346 630 296 q 596 245 525 135 q 460 31 438 11 q 429 1 422 1 q 415 1 411 5 q 408 10 408 22 q 408 52 422 111 q 436 166 458 236 q 481 306 526 430 q 592 613 614 689 q 637 765 637 806 q 637 826 634 834 q 632 842 624 849 q 612 858 591 858 q 546 858 453 818 q 360 777 261 715 q 188 669 140 626 q 91 582 74 545 q 69 535 68 530 q 66 525 66 512 q 66 503 67 497 q 68 491 71 485 q 85 460 120 441 q 156 422 196 419 q 218 418 218 412 l 218 410 q 218 406 214 406 q 209 405 198 405 q 156 406 114 428 q 73 449 59 477 q 50 495 50 512 q 50 532 60 552 q 79 593 136 643 q 194 693 285 748 q 365 795 436 827 q 508 859 560 869 z"},"\"":{"x_min":0,"x_max":134,"ha":134,"o":""},"7":{"x_min":0,"x_max":232,"ha":232,"o":"m 285 694 q 248 655 219 618 q 200 593 178 564 q 157 536 158 535 q 172 536 186 539 l 210 541 q 216 541 218 540 q 219 539 219 534 q 219 530 209 528 q 199 526 174 522 q 144 516 143 515 l 42 362 q 35 351 31 348 q 27 346 22 350 q 20 352 20 354 q 20 358 80 450 q 122 510 120 512 l 108 511 q 101 509 93 509 q 87 509 84 513 q 83 514 83 516 q 83 519 90 522 q 97 524 110 526 l 134 530 l 146 547 q 215 643 260 690 l 274 707 l 264 706 q 248 703 224 700 q 200 698 187 698 q 162 698 142 702 q 122 705 117 710 q 113 714 113 717 q 113 722 120 722 l 129 720 q 140 716 162 714 q 169 713 186 713 q 214 713 242 717 q 270 721 285 728 q 300 733 304 734 q 309 734 311 730 q 313 725 310 720 q 306 716 285 694 z"},"S":{"x_min":0,"x_max":743,"ha":743,"o":"m 697 595 q 542 452 488 446 l 482 446 q 478 446 476 447 q 473 448 471 451 q 466 456 466 463 q 466 480 491 512 q 503 529 542 574 q 581 619 585 621 q 590 623 592 623 q 593 623 596 620 q 599 617 599 613 q 599 609 595 608 q 592 606 560 571 q 529 536 511 513 q 498 497 490 484 q 482 470 482 465 q 482 461 492 463 q 503 465 519 473 q 554 491 613 540 q 672 590 728 646 q 783 703 808 741 q 838 785 838 817 q 838 855 797 867 q 776 874 741 874 q 662 874 564 838 q 495 813 416 770 q 337 728 272 680 q 222 644 187 608 q 132 552 132 508 q 132 494 138 480 q 144 467 159 452 q 174 437 193 424 q 210 413 248 394 q 285 375 319 360 q 354 346 387 329 l 423 312 l 448 323 q 672 419 739 435 q 761 440 764 440 q 771 440 772 437 l 774 433 q 774 427 753 424 q 699 413 490 325 l 441 303 q 441 301 455 292 q 470 283 484 268 q 498 254 503 243 q 507 235 508 230 q 509 224 509 216 q 509 206 508 201 q 506 196 501 185 q 493 168 470 146 q 448 123 420 105 q 336 47 225 18 q 173 5 135 5 q 95 5 72 18 q 50 32 50 54 q 50 83 88 121 q 125 159 193 199 q 221 216 271 242 q 321 267 366 286 l 406 304 l 381 316 l 339 335 l 319 344 q 226 384 189 409 q 140 442 125 472 q 120 484 118 490 q 117 496 117 508 q 117 528 125 548 q 133 568 152 592 q 187 637 261 691 q 335 745 423 792 q 511 838 587 862 q 632 876 668 882 q 703 888 740 888 q 769 888 784 886 q 799 883 814 876 q 853 860 853 817 q 853 792 838 762 q 807 699 697 595 z m 65 52 q 65 47 67 44 q 75 31 100 23 q 112 21 130 21 q 168 21 195 26 q 270 42 346 80 q 416 114 454 150 q 493 187 493 218 q 493 250 443 282 q 424 295 422 295 q 420 295 372 272 q 323 250 285 232 q 192 186 133 140 q 74 94 66 61 q 65 57 65 52 z"},"}":{"x_min":0,"x_max":323,"ha":323,"o":"m 298 682 q 293 669 286 658 q 280 646 262 617 q 236 576 226 554 q 216 533 216 519 q 216 507 235 496 q 242 492 242 487 q 242 484 240 483 q 239 482 234 483 q 222 483 217 484 q 210 484 204 480 q 198 477 190 466 q 174 446 150 391 q 132 348 114 316 q 97 284 83 269 q 74 260 62 255 q 50 250 40 250 q 35 250 29 252 q 23 255 20 260 q 18 266 22 269 q 24 271 26 271 q 28 271 32 269 q 38 266 40 266 q 40 266 50 268 q 60 271 68 278 q 79 288 98 321 q 118 354 134 393 q 136 399 152 436 q 165 460 178 477 q 192 494 201 497 q 205 499 205 500 q 205 502 203 507 l 200 521 q 200 550 240 613 l 268 659 q 288 690 288 709 q 288 727 268 727 q 264 727 256 731 q 252 735 254 739 q 255 741 258 742 q 262 742 268 742 q 302 741 303 710 q 303 693 298 682 z"},"Z":{"x_min":0,"x_max":792,"ha":792,"o":"m 548 191 q 490 119 416 60 q 342 0 286 -19 q 270 -25 247 -25 q 232 -25 224 -22 q 219 -19 211 -11 q 208 -6 207 -2 q 206 3 206 11 q 206 21 208 26 q 209 32 216 45 q 227 67 242 87 q 258 107 286 134 q 366 214 483 283 q 509 298 550 320 q 592 342 606 348 q 610 350 612 352 q 614 354 614 356 q 614 377 594 387 q 576 396 551 396 q 534 396 506 391 q 480 386 466 382 q 452 377 431 365 q 392 343 352 324 q 311 305 301 305 q 290 305 290 313 q 290 318 297 325 q 311 336 348 354 q 386 371 423 384 q 447 393 464 402 q 481 412 517 437 q 629 514 718 604 q 807 693 839 758 q 849 779 852 792 q 856 806 856 823 q 856 834 855 840 q 854 847 851 854 q 841 876 818 889 q 794 902 755 910 q 727 914 681 914 q 642 914 619 911 q 559 904 493 888 q 427 872 370 851 q 280 817 204 770 q 129 724 94 681 q 65 644 65 614 q 65 585 91 559 q 107 543 135 526 q 163 510 192 499 q 222 490 215 482 q 214 479 209 479 q 205 479 188 485 q 143 501 108 526 q 72 552 59 579 q 50 596 50 616 q 50 631 54 642 q 67 684 124 732 q 181 781 271 825 q 349 863 438 889 q 528 915 616 925 q 643 928 692 928 q 745 926 759 924 q 840 909 863 862 q 872 844 872 822 q 872 740 738 603 q 640 504 522 423 q 495 403 500 405 q 504 406 512 407 q 520 408 529 409 q 536 410 550 410 q 616 410 628 369 l 630 360 l 658 374 q 710 400 756 420 q 802 441 814 443 l 817 443 q 822 443 826 440 q 829 437 827 434 q 826 431 815 429 q 803 426 757 406 q 711 385 657 358 l 629 344 l 628 335 q 623 310 601 270 q 579 229 548 191 z m 221 7 q 221 -3 229 -8 q 234 -11 246 -11 q 268 -11 283 -5 q 319 8 368 42 q 418 77 465 123 q 526 181 570 248 q 586 272 600 301 q 613 330 610 333 q 609 334 564 311 q 520 288 495 273 q 391 212 313 140 q 235 67 223 20 q 221 10 221 7 z"},"x":{"x_min":0,"x_max":178,"ha":178,"o":"m 91 362 q 79 354 66 349 q 52 344 44 344 q 31 344 24 350 q 16 357 12 373 l 8 385 l 3 381 q -4 377 -32 348 q -60 318 -63 313 q -67 306 -70 305 q -72 304 -76 308 q -80 312 -80 314 q -80 321 -31 369 l 6 406 l 7 432 q 9 461 10 465 q 11 472 14 474 q 18 476 22 474 q 25 473 25 467 l 23 442 q 21 422 22 421 l 41 437 q 64 458 86 476 q 108 494 110 494 q 113 494 116 491 q 118 488 118 485 q 116 482 110 476 q 103 470 93 462 q 23 403 23 395 q 23 388 26 378 q 29 369 33 364 q 37 359 42 359 q 53 359 74 371 q 94 383 136 413 q 185 449 190 449 q 194 449 196 446 q 199 443 198 441 q 197 439 152 405 q 106 371 91 362 z"},")":{"x_min":0,"x_max":331,"ha":331,"o":"m 310 718 q 311 709 311 691 q 311 648 300 597 q 289 546 269 494 q 262 476 247 444 q 232 413 222 396 q 187 336 142 288 q 98 239 55 215 q 29 199 22 206 l 20 210 q 20 216 39 225 q 95 253 148 318 q 201 383 240 468 q 278 553 291 638 q 295 659 295 698 q 295 736 291 751 l 289 764 q 289 772 295 772 q 301 772 304 760 q 308 748 310 718 z"},"&":{"x_min":0,"x_max":466,"ha":466,"o":"m 265 540 q 259 535 252 488 q 246 440 248 422 l 250 413 l 273 425 q 310 444 342 464 q 375 483 389 496 q 406 511 402 521 q 399 526 403 530 q 405 532 407 532 q 412 532 415 526 q 418 519 418 512 q 418 498 384 472 q 350 447 287 415 q 264 403 258 399 q 252 395 252 387 q 252 380 255 365 q 261 329 275 302 q 289 274 306 263 q 314 258 314 253 q 314 248 308 248 q 293 248 274 274 q 256 299 247 330 q 243 343 240 358 q 238 373 237 382 q 237 389 236 389 q 222 384 209 377 q 155 353 127 345 q 99 337 70 337 q 46 337 34 343 q 23 349 20 362 q 18 375 33 395 q 48 415 78 438 q 126 474 211 526 l 249 549 l 257 570 q 280 630 322 675 q 365 720 406 728 q 408 729 414 729 q 428 730 437 723 q 446 716 446 705 q 446 653 296 560 q 269 544 265 540 z m 66 351 q 81 351 97 354 q 133 361 199 389 l 232 405 q 232 406 233 416 q 234 427 234 444 q 236 487 239 503 q 243 525 242 526 q 241 527 170 482 q 36 397 36 364 q 36 351 66 351 z m 314 590 q 361 622 386 644 q 412 666 424 686 q 431 699 431 705 q 431 712 426 713 q 422 715 419 715 q 412 715 409 714 q 400 712 388 706 q 375 700 368 695 q 337 671 318 646 q 298 622 281 588 q 275 575 273 570 q 271 564 273 564 q 275 564 314 590 z"},"_":{"x_min":0,"x_max":292,"ha":292,"o":"m 146 321 q 83 321 53 322 q 23 322 22 324 q 20 326 20 330 q 21 333 38 334 q 55 335 96 335 q 117 336 164 336 q 207 336 220 335 q 247 335 258 334 q 268 333 270 331 q 273 325 268 324 q 263 322 232 322 q 201 321 146 321 z"},"v":{"x_min":0,"x_max":162,"ha":162,"o":"m 180 438 q 177 435 148 420 q 120 406 111 404 q 99 400 89 400 q 79 400 75 405 l 70 410 l 57 393 q 33 361 18 346 q 4 332 -5 332 q -10 332 -15 337 q -20 342 -20 355 q -20 376 -6 418 q 4 445 10 455 q 16 465 21 461 q 25 459 25 454 q 25 450 20 440 q 9 416 0 382 q -9 348 -4 348 q 3 348 36 390 q 68 432 80 456 q 93 482 101 490 q 109 499 115 493 q 118 489 116 484 q 114 478 103 461 q 84 430 84 419 q 84 405 147 436 q 173 449 175 448 q 180 447 182 444 q 183 440 180 438 z"},"O":{"x_min":0,"x_max":913,"ha":913,"o":"m 677 339 l 759 367 l 812 385 q 904 418 928 435 q 932 438 934 438 q 937 439 939 438 q 950 433 935 422 q 920 411 880 395 q 814 369 703 332 q 681 325 670 321 q 660 317 658 313 q 652 303 630 272 q 607 242 587 216 q 475 76 397 48 q 382 43 368 43 q 355 43 343 48 q 309 67 309 132 q 309 176 324 231 l 329 252 l 299 253 q 114 262 66 361 q 57 379 54 394 q 50 408 50 431 q 50 502 102 579 q 154 656 252 730 q 321 782 398 820 q 474 858 548 876 q 601 889 652 889 q 714 889 759 867 q 838 828 838 732 q 838 679 814 610 q 796 559 760 489 q 725 419 688 359 q 675 339 677 339 z m 105 332 q 130 307 165 293 q 194 282 234 275 q 275 268 317 267 l 333 267 l 347 303 q 376 383 418 461 q 461 539 511 605 q 530 631 548 650 q 566 669 573 671 l 577 672 q 584 672 586 664 q 586 659 576 637 q 566 615 563 614 q 560 614 557 617 q 554 618 554 620 q 554 623 555 628 l 558 637 l 549 628 q 518 593 476 526 q 434 459 405 397 q 391 368 372 322 q 352 275 352 270 q 352 267 387 270 q 422 274 455 280 q 517 291 613 319 q 648 330 652 334 q 662 346 709 426 q 749 496 777 560 q 805 624 815 671 q 822 698 822 733 q 822 760 818 773 q 814 792 808 804 q 801 815 787 829 q 773 843 756 852 q 740 861 716 867 q 692 874 648 874 q 626 874 603 871 q 498 857 380 794 q 263 731 176 643 q 102 568 77 494 q 71 477 68 464 q 66 450 66 433 q 66 398 74 376 q 82 355 105 332 z m 350 61 q 362 57 368 57 q 408 57 476 118 q 543 179 615 279 q 619 286 624 294 q 630 301 633 306 l 637 311 l 627 308 q 548 284 485 271 q 422 258 364 254 l 347 252 l 342 238 q 325 179 325 129 q 325 100 331 84 q 337 68 350 61 z"},"(":{"x_min":0,"x_max":332,"ha":332,"o":"m 41 368 q 35 335 35 307 q 35 271 45 242 q 50 227 50 222 q 50 218 46 218 q 41 218 38 221 q 30 230 23 263 q 20 280 20 306 q 20 343 24 367 q 40 459 88 552 q 135 644 201 709 q 242 750 282 769 q 300 778 306 778 q 312 778 312 772 l 312 770 q 312 766 298 760 q 251 740 199 683 q 141 621 98 535 q 54 449 41 368 z"},"C":{"x_min":0,"x_max":671,"ha":671,"o":"m 50 238 q 50 315 89 408 q 128 502 202 601 q 273 698 366 776 q 459 855 534 883 q 570 897 604 897 q 651 897 667 865 q 676 849 676 825 q 676 798 662 759 q 649 720 620 663 q 589 601 557 552 q 525 504 512 500 l 511 500 q 507 500 503 504 q 499 507 499 511 q 499 517 524 562 q 549 608 561 624 q 566 629 570 630 q 574 630 576 626 q 577 624 574 616 q 570 609 561 595 q 530 544 532 544 q 533 544 548 568 q 564 592 578 616 q 608 670 641 745 q 662 789 662 824 q 662 846 653 859 q 638 882 603 882 q 582 882 552 873 q 534 867 505 852 q 476 837 452 822 q 371 768 294 686 q 218 604 162 512 q 105 421 81 339 q 72 309 70 289 q 67 269 67 236 q 67 215 68 203 q 68 191 72 178 q 92 106 150 86 q 165 81 186 81 q 207 81 227 86 q 323 111 474 239 q 518 278 586 341 q 654 404 677 428 q 690 441 693 441 q 696 441 698 438 q 701 436 701 433 q 701 428 614 346 q 528 265 477 221 q 403 158 338 119 q 274 80 225 70 q 210 66 186 66 q 167 66 155 69 q 144 71 129 79 q 113 87 97 102 q 81 118 72 136 q 50 180 50 238 z"},"W":{"x_min":0,"x_max":1128,"ha":1128,"o":"m 881 156 q 838 107 798 80 q 759 52 732 52 q 720 52 710 60 q 699 69 695 83 q 692 92 692 110 q 692 138 699 171 q 704 193 716 229 q 728 265 740 294 l 752 326 l 724 290 q 617 149 558 92 q 530 64 510 52 q 490 40 472 38 l 464 37 q 459 37 452 42 q 442 49 440 56 q 437 62 437 81 q 437 97 438 104 q 440 112 445 128 q 463 181 500 253 q 538 328 587 412 q 636 496 727 638 q 796 747 818 790 q 841 833 841 857 q 841 876 830 883 q 819 890 789 890 q 738 890 654 864 q 569 837 474 792 q 378 747 299 695 q 218 642 160 587 q 103 532 80 484 q 74 471 70 455 q 65 439 65 429 q 65 395 96 366 q 128 336 187 315 q 205 308 210 304 q 215 300 212 296 q 209 293 202 295 q 194 297 178 303 q 149 313 132 322 q 115 332 95 348 q 50 384 50 431 q 50 500 147 594 q 218 663 317 724 q 429 794 558 845 q 687 896 772 904 q 786 906 794 906 q 825 905 841 892 q 857 880 857 857 q 857 852 855 840 q 849 811 824 766 q 798 721 707 578 q 571 362 509 236 q 450 117 450 77 q 450 65 457 56 q 462 51 468 51 q 496 51 554 110 q 613 168 709 295 q 757 360 772 383 q 787 406 812 455 q 852 537 880 582 q 909 628 920 628 q 925 628 928 624 q 930 619 929 613 q 926 597 896 544 q 865 491 820 424 q 797 391 784 360 q 707 185 707 111 q 707 94 712 81 q 715 73 720 70 q 726 67 738 68 q 775 69 844 140 q 876 173 903 208 q 930 243 964 296 q 1049 427 1110 556 q 1172 686 1172 733 q 1172 743 1170 747 q 1168 751 1162 752 q 1152 754 1150 758 q 1148 763 1155 766 q 1157 767 1161 767 q 1173 767 1180 758 q 1188 747 1188 732 q 1188 688 1136 576 q 1085 464 1012 344 q 939 223 881 156 z m 872 533 l 873 537 q 871 537 870 533 q 869 532 868 530 q 868 529 869 529 z m 879 545 l 881 552 q 879 552 877 545 q 873 539 875 539 z m 887 560 q 889 563 889 566 q 888 565 887 564 q 886 562 885 560 q 882 554 883 554 z"},"A":{"x_min":0,"x_max":1000,"ha":1000,"o":"m 53 339 q 50 347 50 354 q 50 379 78 405 q 107 431 158 453 q 271 502 386 502 q 419 502 438 500 q 458 498 481 492 q 586 464 596 367 l 597 353 l 618 388 q 702 528 761 610 q 839 721 910 801 q 982 881 1008 886 l 1012 886 q 1030 888 1030 864 q 1030 821 953 649 l 898 525 q 839 393 841 391 q 843 389 920 412 q 998 436 1012 443 q 1019 447 1023 447 q 1029 447 1029 440 l 1029 438 q 1029 434 1017 429 q 991 417 887 387 q 834 373 831 370 q 827 366 798 294 q 769 221 748 165 q 731 118 717 69 q 703 20 698 -10 q 695 -28 695 -48 q 695 -64 697 -66 q 699 -68 698 -72 q 698 -77 696 -78 q 692 -80 690 -79 q 689 -78 686 -75 q 679 -68 679 -47 q 679 0 711 103 q 743 206 799 335 l 811 366 l 774 356 l 710 339 l 673 330 l 602 312 q 598 311 596 310 q 594 308 594 304 q 593 294 590 276 q 586 259 581 242 q 572 210 556 174 q 539 138 528 123 q 518 110 509 110 q 503 110 500 117 q 497 124 498 136 q 500 155 518 198 q 535 240 560 285 q 570 304 568 304 l 542 299 q 458 281 368 276 q 346 274 303 274 q 229 274 166 285 q 104 296 75 315 q 66 321 62 326 q 58 330 53 339 z m 66 352 q 66 343 73 336 q 87 320 130 308 q 172 296 230 292 q 271 288 299 288 q 308 288 348 290 q 427 295 496 306 q 524 311 551 316 q 578 321 580 323 q 582 325 582 340 q 582 365 579 380 q 572 415 546 441 q 520 467 476 478 q 442 487 409 487 l 377 487 q 344 486 320 484 q 297 481 270 474 q 226 464 180 446 q 135 428 110 410 q 92 398 80 383 q 67 368 66 358 z m 516 133 q 521 138 531 158 q 543 180 551 201 q 559 222 574 276 q 572 275 562 256 q 551 236 541 214 q 532 193 523 169 q 514 145 513 134 l 511 127 z m 672 345 l 779 373 l 819 384 l 827 402 l 933 641 q 1004 798 1013 850 q 1014 860 1014 866 q 1015 871 1012 871 q 1009 871 1007 869 q 988 860 948 818 q 907 776 863 721 q 773 608 673 448 q 602 332 602 329 q 602 328 617 331 q 632 334 672 345 z"},"f":{"x_min":0,"x_max":128,"ha":128,"o":"m 208 706 q 208 698 188 669 q 179 656 176 654 q 173 651 168 651 q 162 651 159 648 q 156 646 148 635 q 130 609 100 566 q 71 522 57 497 q -6 393 -4 391 q -4 389 29 404 q 66 421 99 435 q 132 449 136 449 q 140 449 142 446 q 143 443 141 439 q 140 437 107 422 q 69 407 29 388 l -17 367 l -31 341 l -24 334 q -14 322 -10 308 q -5 295 -5 275 q -5 250 -13 229 q -28 183 -60 142 q -91 100 -111 100 q -116 100 -121 105 q -128 111 -128 126 q -128 138 -123 160 q -106 223 -66 305 q -53 332 -55 334 q -56 335 -58 336 q -61 337 -64 338 q -79 343 -77 352 q -74 358 -47 370 l -31 377 l -9 416 q 43 510 98 592 q 153 673 185 704 q 194 713 200 712 q 208 712 208 706 z m -113 124 q -113 116 -109 116 q -104 116 -99 121 q -80 137 -58 174 q -35 210 -25 240 q -20 260 -20 280 q -20 291 -21 296 q -22 304 -28 314 q -34 324 -38 325 q -40 324 -56 288 q -73 253 -84 224 q -107 168 -112 137 q -113 132 -113 124 z m -43 352 q -41 355 -42 356 l -48 354 q -53 350 -52 349 q -51 347 -48 348 q -45 349 -43 352 z"},"Q":{"x_min":0,"x_max":856,"ha":856,"o":"m 625 229 q 599 197 601 197 q 621 194 676 190 q 731 185 790 181 q 1056 162 1074 157 q 1079 155 1082 154 q 1085 152 1086 149 l 1086 141 q 1082 132 1041 120 q 1000 107 937 96 q 930 95 925 94 q 920 93 916 92 q 892 88 892 88 l 889 88 q 883 88 881 94 q 879 99 885 101 q 894 104 927 109 q 969 116 1004 125 q 1040 134 1056 141 q 1060 142 1060 143 q 1061 144 1058 144 q 1053 146 964 153 q 875 160 791 166 q 677 174 603 182 l 588 183 l 565 158 q 490 80 430 50 q 390 30 359 30 q 327 30 306 48 q 284 67 274 101 q 271 115 271 141 q 271 177 276 207 l 281 232 l 255 239 q 111 281 69 343 q 58 360 54 374 q 50 388 50 410 q 50 435 59 461 q 87 546 186 640 q 286 735 424 806 q 574 883 687 883 l 692 883 q 725 883 744 880 q 763 876 784 866 q 831 843 847 780 q 850 769 850 756 q 851 744 851 724 q 851 687 846 658 q 827 563 768 448 q 709 333 625 229 z m 65 407 q 65 372 86 345 q 105 320 149 296 q 193 272 251 256 q 271 250 278 248 q 286 247 286 249 q 286 252 295 281 q 320 358 362 440 q 404 522 452 586 q 471 612 483 621 q 495 630 499 622 q 502 617 500 612 q 499 606 488 587 q 477 568 473 564 q 469 561 465 568 q 463 571 462 570 q 460 570 454 562 q 449 554 440 540 q 399 479 365 410 q 331 340 311 277 q 302 250 302 246 q 302 243 312 240 q 323 238 347 233 q 404 221 543 203 q 563 200 570 200 q 578 200 583 204 q 588 208 594 216 q 601 225 604 229 q 683 325 742 432 q 801 540 823 629 q 837 680 837 728 q 837 750 834 766 q 828 804 806 829 q 785 854 751 863 q 728 869 693 869 q 635 869 563 846 q 491 824 411 781 q 290 715 202 633 q 113 551 81 475 q 65 439 65 407 z m 357 45 q 372 45 385 49 q 437 62 509 126 q 525 140 546 162 q 567 184 566 185 l 508 193 q 391 208 330 221 q 297 228 297 226 q 297 226 291 201 q 287 178 287 144 q 287 111 291 98 q 308 45 357 45 z"},"w":{"x_min":0,"x_max":242,"ha":242,"o":"m 197 404 q 172 392 159 392 q 154 392 149 395 l 145 397 q 143 397 137 390 q 127 376 110 358 q 94 339 87 334 q 79 328 69 326 l 65 326 q 60 326 56 330 q 52 336 50 342 q 48 360 56 389 l 60 402 l 36 379 q 13 358 4 351 q -5 344 -10 344 q -20 344 -20 354 q -20 363 -13 380 q -2 410 14 438 q 31 465 38 465 q 41 465 44 462 q 46 460 46 457 q 46 454 36 439 q 20 418 3 378 q 0 371 0 368 q -1 366 3 369 l 40 405 q 56 421 65 429 q 74 437 77 436 q 80 436 82 434 q 84 433 84 429 q 84 424 78 406 q 68 377 65 359 q 62 341 67 341 q 70 341 80 349 q 90 357 99 368 q 113 383 128 403 q 143 423 143 425 q 143 430 154 450 q 165 469 172 478 q 186 497 195 491 q 198 488 198 484 q 198 477 168 432 q 157 415 157 410 q 157 404 170 409 q 183 414 217 431 q 253 449 256 449 q 259 449 261 445 q 263 441 261 439 q 260 436 238 424 q 216 412 197 404 z"},"-":{"x_min":0,"x_max":229,"ha":229,"o":"m 205 453 q 201 452 112 450 l 50 449 q 24 449 22 451 q 20 453 20 457 q 20 461 22 462 q 24 463 74 464 q 125 466 170 466 q 205 466 206 465 q 209 462 209 458 q 209 455 205 453 z"},"E":{"x_min":0,"x_max":762,"ha":762,"o":"m 50 335 q 50 341 51 344 q 70 417 288 517 l 328 535 l 331 547 q 334 560 345 581 q 356 602 369 620 q 391 649 430 685 q 468 721 513 755 q 607 826 703 870 q 799 915 874 923 q 881 924 896 924 q 923 923 938 913 q 952 903 952 886 q 952 857 916 821 q 865 769 750 708 q 635 647 403 549 q 377 539 363 532 q 349 526 346 524 q 344 522 344 518 q 344 507 353 493 q 362 479 375 472 q 403 456 468 452 q 487 451 494 448 q 501 445 501 440 q 501 436 494 432 q 487 429 473 424 q 408 399 340 354 q 273 310 220 256 q 137 174 112 102 q 106 86 106 64 q 106 51 109 45 q 118 24 150 24 q 238 24 467 208 q 531 259 618 332 q 706 405 725 424 q 736 434 740 436 q 745 437 748 432 q 752 429 748 425 q 741 413 543 250 q 466 187 422 153 q 378 119 336 91 q 290 60 260 44 q 230 29 199 18 q 187 14 178 12 q 168 10 156 10 q 132 10 126 12 q 90 24 90 66 q 90 108 128 170 q 166 231 231 290 q 296 349 373 393 q 421 421 451 432 q 461 435 461 437 q 461 439 452 439 q 432 439 404 446 q 376 454 362 463 q 348 473 339 487 q 330 501 330 513 q 330 519 327 517 q 285 499 235 474 q 159 435 114 398 q 68 361 66 336 l 66 331 q 66 326 70 321 q 74 317 83 315 q 91 314 94 312 q 97 310 97 306 q 97 302 96 301 q 94 300 87 300 q 71 300 60 310 q 50 321 50 335 z m 414 571 q 697 690 814 763 q 873 801 905 832 q 937 864 937 886 q 937 898 926 904 q 916 909 893 909 q 839 909 756 876 q 673 843 589 789 q 501 731 440 673 q 378 615 356 569 q 350 558 348 550 q 345 541 347 542 q 349 544 414 571 z"},"s":{"x_min":0,"x_max":136,"ha":136,"o":"m 114 418 q 65 392 55 386 l 35 373 l 35 361 q 35 338 14 317 q 4 308 -12 300 q -28 292 -39 290 l -46 289 q -50 289 -55 294 q -60 299 -60 302 q -60 310 -44 328 q -27 347 -3 365 l 15 378 q 16 379 10 396 q 3 411 3 425 q 3 438 11 448 q 19 459 37 469 q 48 474 54 475 q 65 475 65 464 q 65 455 60 452 q 55 448 50 454 q 49 456 47 456 q 45 456 43 455 q 32 449 24 440 q 17 430 17 422 q 18 415 22 403 q 27 391 29 390 q 31 390 36 392 q 42 395 50 400 q 76 415 110 433 q 145 451 148 451 q 152 451 154 448 q 157 444 155 441 q 151 438 140 432 q 130 426 114 418 z m -38 305 q -33 305 -23 311 q 11 327 19 353 q 21 361 20 361 q 18 363 -10 338 q -38 314 -42 307 q -45 302 -38 305 z"},">":{"x_min":0,"x_max":232,"ha":232,"o":"m 28 365 q 23 365 21 368 q 20 371 21 374 q 23 378 53 387 q 87 399 129 416 q 171 432 184 439 l 198 446 l 194 450 q 179 461 138 478 q 93 497 90 503 q 90 507 92 509 q 94 511 97 511 q 100 511 113 505 q 117 503 141 493 q 187 473 204 460 q 212 452 212 445 q 212 439 206 433 q 196 424 119 394 q 42 365 28 365 z"},"l":{"x_min":0,"x_max":154,"ha":154,"o":"m -5 325 q -5 315 -1 312 q 3 310 12 312 q 27 317 54 338 q 81 360 131 407 q 174 447 178 446 q 183 446 184 440 q 184 437 172 425 q 161 413 134 388 q 88 345 67 329 q 25 296 4 296 q -20 296 -20 326 q -20 368 24 456 q 54 517 105 593 q 156 669 187 700 q 211 726 226 726 q 234 726 234 714 q 234 708 226 690 q 217 673 203 651 q 179 610 128 544 q 76 477 43 444 q 33 434 28 428 q 24 421 19 408 q 3 372 -3 342 z m 58 485 q 58 484 91 524 q 145 592 177 639 q 191 660 204 682 q 216 703 215 705 q 213 707 195 686 q 177 665 162 645 q 140 615 112 573 q 84 531 66 499 z"},"8":{"x_min":0,"x_max":362,"ha":362,"o":"m 233 598 q 293 669 312 693 q 330 717 325 721 q 322 723 308 721 q 294 719 281 715 q 231 701 194 667 q 157 633 152 597 q 151 591 152 590 q 153 588 156 592 q 159 595 165 598 q 169 600 172 600 q 174 600 178 598 q 182 595 182 592 q 182 587 176 585 q 172 584 161 577 q 153 570 153 567 q 153 560 164 540 q 175 521 192 498 q 209 475 216 462 q 224 449 227 437 q 228 433 228 425 q 228 407 216 391 q 205 375 184 365 q 152 348 112 348 q 101 348 96 349 q 58 355 40 373 q 20 393 20 419 q 20 453 51 494 q 62 508 82 529 q 102 550 120 565 l 136 578 l 136 589 q 136 628 174 668 q 215 712 276 729 q 304 736 316 736 q 342 736 342 718 q 342 709 330 692 q 319 676 283 633 q 250 593 231 571 q 212 549 206 543 q 199 537 195 537 q 189 538 190 542 q 190 545 202 560 q 213 575 233 598 z m 82 367 q 94 364 115 364 q 129 364 145 366 q 158 369 173 376 q 188 382 195 389 q 203 397 208 407 q 213 417 213 426 q 213 448 184 484 q 156 520 145 546 q 143 551 141 554 q 139 558 138 558 q 134 557 112 537 q 91 517 81 505 q 56 476 46 456 q 36 437 36 417 q 36 399 48 386 q 60 372 82 367 z"},"\\":{"x_min":0,"x_max":263,"ha":263,"o":"m 237 260 q 231 260 225 269 q 205 302 156 414 q 107 525 71 621 q 48 680 30 720 q 20 743 20 751 q 20 757 27 757 q 33 757 34 751 l 51 711 l 89 616 q 125 522 168 424 q 211 325 233 286 q 243 268 243 263 q 242 260 237 260 z"},"e":{"x_min":0,"x_max":132,"ha":132,"o":"m 8 338 q 1 338 -5 341 q -13 345 -16 351 q -20 357 -20 367 q -20 386 -6 411 q 7 436 27 456 q 36 464 47 470 q 58 477 64 477 q 68 477 72 472 q 77 466 77 461 q 77 449 60 428 q 44 407 32 402 q 30 401 26 401 q 23 401 17 404 l 9 408 l 3 394 q -2 383 -4 372 q -6 360 -3 357 q -2 354 9 354 q 20 354 42 368 q 63 382 113 422 q 137 440 144 443 q 151 446 152 438 q 152 435 146 430 q 141 425 129 415 q 73 371 48 354 q 23 338 8 338 z m 25 417 q 29 417 37 424 q 44 430 52 442 q 61 454 61 458 q 61 459 60 460 q 60 460 59 459 q 54 459 37 444 q 26 433 22 428 q 19 422 21 419 z"},"b":{"x_min":0,"x_max":206,"ha":206,"o":"m 226 445 q 226 440 215 437 q 204 435 137 406 q 122 399 115 389 q 101 369 84 353 q 66 337 53 333 q 44 330 34 330 q 22 330 18 334 q 14 338 14 342 q 14 348 23 357 q 40 374 92 401 q 106 408 110 410 q 113 413 117 423 q 123 434 126 448 q 129 455 129 458 q 129 462 127 464 q 125 466 117 465 q 95 459 66 426 q 36 392 6 340 q -4 322 -8 318 q -13 313 -18 318 q -20 320 -20 324 q -20 328 -2 375 q 15 422 28 451 q 56 514 90 578 q 123 641 153 689 q 162 703 165 703 q 167 702 170 699 q 174 696 174 695 l 151 655 q 84 543 37 431 l 25 401 q 26 400 35 412 q 59 444 82 462 q 105 479 123 480 q 130 480 132 479 q 135 478 139 474 q 144 469 144 458 q 144 449 139 434 l 134 421 l 143 425 q 166 435 190 444 q 214 453 217 453 q 220 453 224 449 q 226 447 226 445 z m 36 344 q 43 344 52 349 q 60 353 72 363 q 85 373 87 378 q 88 380 87 380 l 86 380 l 75 375 q 61 367 48 358 q 34 348 33 346 q 33 344 36 344 z"},"%":{"x_min":0,"x_max":550,"ha":550,"o":"m 399 438 q 399 425 382 402 q 366 379 342 358 q 319 337 302 331 q 292 329 285 329 q 278 329 270 331 q 259 336 259 353 q 259 369 272 394 q 285 418 305 438 q 316 449 323 454 q 330 458 337 457 q 344 457 353 460 q 361 463 370 463 q 378 463 385 460 q 399 455 399 438 z m 20 306 q 20 308 26 314 q 112 390 259 514 q 406 637 458 677 q 500 707 513 713 q 520 717 524 717 q 524 716 526 716 q 530 713 530 709 q 530 706 528 703 q 526 700 522 700 q 519 700 498 686 q 478 672 456 655 q 409 619 288 518 q 167 416 78 339 q 32 298 27 298 l 23 301 q 20 304 20 306 z m 178 612 q 178 633 193 660 q 208 688 233 709 q 257 729 266 724 q 268 722 275 724 q 279 726 288 726 q 296 725 301 718 q 306 712 306 701 q 306 692 301 677 q 294 655 271 629 q 248 603 228 592 q 212 584 201 584 q 194 584 187 589 q 178 597 178 612 z m 192 611 q 192 599 201 599 q 208 599 220 605 q 231 611 248 627 q 264 643 274 658 q 281 668 286 681 q 291 694 291 703 q 291 711 287 711 l 284 711 l 271 705 q 260 696 254 702 l 252 703 q 250 703 237 690 q 201 656 193 620 q 192 616 192 611 z m 282 342 q 287 342 294 345 q 309 350 332 372 q 356 393 372 414 q 388 436 383 443 q 380 449 371 449 q 362 449 350 442 q 337 436 324 424 q 316 416 311 416 q 307 416 303 412 q 299 408 294 399 q 274 371 274 353 q 274 342 282 342 z"},"m":{"x_min":0,"x_max":318,"ha":318,"o":"m 263 372 q 214 334 199 334 q 195 334 190 337 q 186 339 184 346 q 183 354 188 371 q 193 388 202 408 l 212 433 q 212 437 183 418 q 154 398 128 377 q 118 368 110 362 q 103 357 100 356 q 98 356 94 359 q 91 362 91 364 l 111 405 q 140 463 137 468 q 135 469 122 463 q 109 457 95 449 q 50 418 -2 355 q -13 341 -18 338 q -22 335 -27 339 q -30 342 -30 344 q -30 347 -27 354 q -26 361 -1 409 q 10 433 16 444 q 23 454 26 454 q 33 454 32 448 q 31 442 20 419 l 6 390 q 6 389 29 412 q 71 454 107 473 q 127 482 135 482 q 142 482 146 478 q 150 475 151 472 q 152 470 152 464 q 150 447 131 410 q 123 394 126 397 q 133 401 145 411 q 168 428 188 438 q 207 449 214 449 q 220 449 224 445 q 228 441 228 436 q 228 431 218 407 q 200 365 200 352 l 200 350 q 200 348 202 348 l 209 352 l 248 380 q 286 410 306 424 q 326 438 331 438 q 338 438 338 433 l 338 432 q 338 429 318 414 z"},"#":{"x_min":0,"x_max":448,"ha":448,"o":"m 424 579 q 419 578 406 577 q 393 576 375 576 q 326 574 321 573 l 312 572 l 288 525 l 264 478 q 264 477 309 477 q 355 479 360 477 q 364 476 366 472 q 367 469 365 466 q 365 465 314 463 q 261 461 259 460 q 254 460 251 450 q 248 445 228 401 q 189 314 188 299 q 188 294 186 292 q 185 289 182 289 q 180 288 178 288 q 175 289 174 291 q 172 292 172 297 q 172 305 176 317 q 192 360 225 430 q 238 459 237 459 q 221 459 186 456 q 152 453 136 451 l 115 410 q 98 376 83 351 q 77 341 73 336 q 69 332 65 332 q 59 332 59 336 q 59 342 66 353 q 79 375 98 412 q 117 448 116 449 q 102 448 66 444 q 31 439 30 438 l 24 439 q 23 440 20 445 q 20 450 23 451 q 25 453 115 465 l 126 466 l 151 515 l 175 564 l 164 563 l 113 558 q 89 555 75 555 q 69 555 67 559 q 65 563 69 566 q 72 569 166 578 l 183 580 l 195 605 l 223 662 q 232 680 236 688 q 241 695 245 695 q 248 695 250 694 q 252 693 252 690 q 252 686 227 634 l 202 582 q 204 580 244 584 l 294 587 l 302 587 l 314 607 q 328 633 348 666 q 368 699 382 721 q 391 736 396 736 q 404 736 404 730 q 404 727 401 722 q 388 703 355 647 q 322 591 323 590 l 334 589 l 373 591 l 407 592 q 423 592 425 590 q 428 588 428 584 q 427 581 424 579 z m 156 468 q 170 470 204 472 l 244 475 q 246 476 270 522 q 293 569 292 570 q 291 570 290 570 q 289 571 288 571 q 269 571 242 569 q 214 567 199 565 q 194 564 188 554 q 182 544 169 518 q 148 472 145 469 q 145 468 156 468 z"},",":{"x_min":0,"x_max":87,"ha":87,"o":"m 67 347 q 67 335 50 315 q 39 303 32 300 q 24 296 21 302 q 20 303 20 305 q 20 308 29 316 q 38 323 45 333 q 48 337 49 340 q 50 343 49 346 q 48 348 48 351 q 48 357 55 357 q 67 357 67 347 z"},"n":{"x_min":0,"x_max":210,"ha":210,"o":"m 230 432 q 230 426 218 418 l 179 389 q 151 370 137 362 q 123 354 115 354 q 107 354 103 358 q 99 362 99 371 q 99 382 107 411 l 114 438 q 115 444 113 444 q 104 444 71 419 q 59 411 18 370 l -18 334 q -21 332 -23 332 q -25 333 -27 334 q -30 336 -30 339 q -30 344 -23 361 q -13 383 3 416 q 19 448 26 458 q 32 468 36 468 q 45 468 45 462 q 45 458 41 451 q 36 444 18 409 l 1 377 l 23 398 q 65 437 96 453 q 105 457 110 458 q 115 460 119 459 q 127 458 128 450 q 129 447 129 442 q 129 431 120 399 q 115 379 115 373 q 115 368 118 368 q 120 368 126 372 q 142 382 175 406 q 208 429 215 435 q 224 442 228 436 z"},"h":{"x_min":0,"x_max":184,"ha":184,"o":"m 204 437 q 205 430 151 380 q 105 338 92 337 q 80 334 73 342 q 66 351 68 365 q 70 375 79 405 q 96 451 94 452 q 93 454 84 447 q 75 440 65 431 q 39 407 -3 348 q -15 331 -22 323 q -28 315 -32 315 q -38 315 -38 317 q -41 320 -37 332 q -33 344 -11 397 q 17 465 70 565 q 124 665 153 704 q 158 712 162 714 q 165 717 171 717 q 178 717 178 704 q 178 698 176 696 q 174 693 169 692 q 165 692 160 686 q 155 680 146 665 q 99 588 52 494 q 32 455 16 420 q 1 386 1 382 q 1 379 12 394 q 31 419 52 439 q 72 459 85 466 q 88 468 95 468 q 104 468 108 462 q 110 460 110 454 q 110 451 108 441 q 108 440 94 396 q 78 352 87 352 q 100 352 171 420 q 195 444 199 444 q 202 444 203 442 q 204 440 204 437 z"},"z":{"x_min":0,"x_max":180,"ha":180,"o":"m 73 339 l 52 322 l 50 302 q 46 266 23 220 q 0 175 -37 129 q -49 114 -78 85 q -106 56 -121 44 q -140 29 -166 12 q -192 -4 -209 -11 q -227 -19 -247 -19 q -270 -19 -270 2 q -270 25 -243 64 q -215 104 -151 166 q -87 229 -6 294 q 9 306 20 316 q 30 325 33 329 q 33 332 29 336 q 27 339 22 340 q 16 340 7 340 q -7 340 -12 342 q -17 344 -17 349 q -17 352 -8 360 q 0 367 21 383 q 47 402 69 421 q 79 429 90 442 q 102 455 102 457 q 102 459 96 459 q 85 459 57 448 q 29 438 29 434 q 29 432 21 428 q 13 424 5 422 l 1 421 q -7 421 -7 430 q -7 434 0 440 q 8 445 26 453 q 70 474 96 474 l 100 474 q 107 474 111 470 q 116 467 116 458 q 116 451 111 443 q 106 435 86 416 q 65 397 42 379 l 15 358 l 25 354 q 38 349 41 344 q 46 338 49 339 l 76 361 l 146 414 q 165 429 178 437 q 190 445 194 446 q 197 446 199 442 l 200 439 q 200 436 196 432 q 192 429 185 424 z m -246 -3 q -234 -3 -217 3 q -175 20 -123 64 q -71 109 -31 162 q -5 196 14 235 q 33 274 35 297 l 36 309 l 26 301 q -40 248 -84 208 q -112 183 -146 149 q -181 115 -196 98 q -223 68 -242 36 q -258 9 -255 0 q -254 -3 -246 -3 z"},"B":{"x_min":0,"x_max":847,"ha":847,"o":"m 50 504 q 50 560 90 620 q 131 679 206 733 q 317 812 471 862 q 625 913 754 913 q 794 913 820 908 q 846 904 867 894 q 893 881 905 860 q 917 840 917 808 q 917 766 898 729 q 879 692 834 649 q 781 600 723 561 q 692 540 667 526 q 642 511 599 489 l 555 468 l 579 466 q 682 460 694 392 l 696 379 l 707 383 q 765 406 837 431 q 861 439 869 440 q 877 441 877 435 q 877 433 875 429 q 864 424 837 415 q 771 392 714 369 l 694 362 l 691 347 q 678 295 628 230 q 577 164 505 104 q 433 45 360 10 q 291 -23 248 -23 q 238 -23 224 -19 q 208 -14 202 -1 q 199 5 199 14 q 199 46 240 97 q 280 148 344 194 q 353 200 357 204 q 361 208 360 210 q 359 215 382 272 q 405 328 437 397 q 450 424 450 433 q 450 440 455 445 q 462 450 476 482 q 539 619 587 711 q 635 803 647 808 q 649 809 652 809 q 659 809 659 801 q 659 793 654 776 q 648 758 644 757 q 643 756 641 757 q 639 758 637 760 q 635 762 634 762 q 632 762 625 750 q 605 714 562 628 q 519 541 486 467 l 480 455 l 487 456 q 500 459 593 503 q 746 580 836 673 q 870 709 886 742 q 903 775 903 809 q 903 844 882 865 q 848 899 757 899 q 660 899 541 868 q 422 836 320 783 q 199 721 132 647 q 65 573 65 502 q 65 492 69 470 q 71 461 80 442 q 88 426 99 414 q 110 401 122 396 q 136 389 136 384 q 136 375 120 382 q 103 388 89 402 q 78 413 68 431 q 59 449 54 468 q 50 484 50 504 z m 246 -8 q 259 -8 282 -3 q 307 3 340 18 q 374 33 407 53 q 487 103 558 175 q 630 247 661 310 q 670 330 674 351 q 669 350 640 338 q 610 325 574 309 q 505 276 439 237 q 373 198 330 163 q 310 148 283 121 q 256 94 246 80 q 215 39 215 13 q 215 -8 246 -8 z m 378 221 q 378 220 379 220 q 383 220 399 231 l 451 262 q 531 308 647 357 l 680 371 l 679 385 q 678 398 674 407 q 670 416 660 424 q 645 438 623 444 q 601 451 569 451 q 522 451 487 438 l 469 432 l 463 419 q 383 240 378 222 z"},"K":{"x_min":0,"x_max":1148,"ha":1148,"o":"m 1322 913 q 1328 915 1328 915 l 1332 913 q 1335 912 1335 908 q 1335 902 1326 890 q 1321 884 1318 882 q 1315 879 1311 879 q 1304 879 1281 857 l 1265 843 l 1207 789 l 1170 755 l 1135 724 q 1071 664 1017 620 l 984 591 l 967 577 q 959 572 944 559 q 919 539 886 514 q 852 489 821 468 q 777 437 732 411 q 687 385 658 374 l 645 369 q 645 367 756 313 q 867 259 911 240 q 970 214 1066 178 q 1162 143 1257 112 q 1392 67 1440 61 l 1452 60 l 1451 66 q 1451 70 1452 72 q 1452 73 1456 74 q 1459 74 1461 72 q 1463 71 1465 68 q 1468 62 1468 59 q 1468 55 1463 50 q 1459 46 1448 46 q 1434 46 1408 52 q 1363 63 1280 90 q 1198 116 1109 148 q 988 191 922 220 q 857 248 721 315 l 631 359 l 623 362 l 604 325 q 571 262 563 248 l 508 141 q 476 78 469 68 q 465 62 460 62 q 454 64 454 69 q 454 74 457 78 q 465 90 483 126 q 505 169 528 212 q 550 256 563 280 l 601 355 l 571 356 q 555 356 546 356 q 536 357 527 361 q 505 368 483 385 q 461 402 456 415 q 454 423 454 425 q 454 435 463 440 q 472 445 486 443 q 495 442 556 412 q 615 381 615 383 q 625 401 652 452 q 679 504 709 564 q 759 663 782 718 q 804 773 812 812 q 814 821 814 837 q 814 867 798 882 q 781 896 745 896 q 699 896 622 870 q 544 844 458 800 q 371 757 299 707 q 216 649 158 587 q 100 526 78 473 q 64 439 64 414 q 64 377 95 348 q 128 316 206 299 q 224 295 230 293 q 235 291 235 287 q 235 281 228 281 q 222 281 196 287 q 176 291 161 296 q 146 301 130 309 q 97 325 78 344 q 60 362 53 388 q 50 399 50 413 q 50 439 58 463 q 81 533 157 610 q 233 686 351 759 q 433 810 527 850 q 621 891 692 905 q 722 910 749 910 q 764 910 769 909 q 828 899 828 836 q 828 790 800 721 q 783 680 757 626 q 731 572 673 458 q 635 386 635 383 q 635 379 672 397 q 781 448 951 585 q 1037 655 1183 788 q 1309 905 1322 913 z m 482 404 q 502 385 522 377 q 542 369 567 369 q 577 369 585 370 q 593 371 597 372 q 601 374 552 400 q 502 425 489 428 l 478 430 q 476 430 472 428 q 468 424 468 424 q 468 418 482 404 z"},"R":{"x_min":0,"x_max":1253,"ha":1253,"o":"m 1432 86 q 1351 106 1255 136 q 1129 175 1020 213 q 912 251 741 314 l 656 345 l 614 260 q 575 181 558 150 q 541 120 534 118 l 531 118 q 527 118 524 121 q 522 124 522 128 q 522 140 544 192 q 565 244 594 302 l 622 357 q 622 359 598 368 q 572 379 546 390 q 519 402 506 409 q 502 411 502 416 q 501 420 505 421 l 507 421 q 513 421 516 420 q 550 410 590 402 q 631 393 640 394 q 644 394 654 410 q 665 429 685 458 q 699 481 709 500 q 719 520 735 556 q 773 639 790 682 q 806 726 812 755 q 816 777 816 784 q 816 806 801 818 q 793 826 782 829 q 770 832 748 832 q 725 832 709 830 q 693 827 661 819 q 577 797 472 743 q 367 689 278 621 q 225 581 174 530 q 99 455 78 404 q 71 387 68 375 q 65 363 65 349 q 66 320 83 300 q 100 279 138 261 q 169 246 200 238 q 231 230 271 228 q 278 227 291 226 q 304 225 306 224 q 307 222 307 219 q 307 212 287 212 q 282 212 256 214 q 214 218 172 232 q 129 245 101 264 q 89 271 78 284 q 66 297 61 307 q 50 329 50 352 q 50 394 85 449 q 116 496 172 550 q 229 605 302 657 q 387 717 484 766 q 581 814 660 834 q 712 847 748 847 q 790 847 810 831 q 831 815 831 781 q 831 754 815 706 q 804 672 770 594 l 752 553 q 753 553 775 580 q 879 705 1002 788 q 1051 821 1099 844 q 1144 866 1178 876 q 1211 885 1244 887 l 1257 887 q 1277 887 1285 885 q 1320 877 1338 852 q 1357 826 1357 788 q 1357 746 1333 695 q 1281 585 1133 495 q 1066 454 990 424 q 914 395 846 384 q 812 378 790 376 q 767 374 725 374 l 669 374 l 666 367 q 662 361 664 359 q 667 356 879 279 q 1022 227 1164 180 q 1307 134 1392 111 q 1476 89 1560 74 q 1644 59 1661 64 l 1668 66 l 1656 78 q 1643 91 1643 93 q 1643 95 1647 96 q 1651 98 1654 97 q 1659 95 1668 86 q 1678 77 1680 72 l 1682 64 q 1682 56 1671 51 q 1663 49 1647 49 q 1626 49 1606 52 q 1533 61 1432 86 z m 599 267 l 640 351 q 637 351 637 350 q 632 345 595 268 q 558 191 558 186 q 558 183 599 267 z m 598 385 q 598 384 611 378 q 622 373 626 372 q 631 371 633 375 l 634 378 q 634 381 612 383 q 604 385 599 385 z m 649 367 q 650 369 650 373 l 649 371 q 647 369 647 366 q 647 365 649 367 z m 713 388 q 770 388 808 392 q 930 408 1066 475 q 1126 505 1180 544 q 1233 584 1266 623 q 1303 666 1322 710 q 1342 753 1342 788 q 1342 820 1327 842 q 1312 863 1283 870 q 1271 874 1255 874 q 1202 874 1124 840 q 1046 805 969 746 q 851 657 742 512 q 727 492 720 480 q 713 469 703 446 l 687 413 l 677 390 q 677 388 713 388 z"},"T":{"x_min":0,"x_max":600,"ha":600,"o":"m 392 252 q 329 127 304 80 q 279 34 274 31 q 271 30 269 30 q 267 30 265 32 q 262 35 262 37 l 276 65 l 328 174 l 384 294 q 409 345 450 426 q 490 507 506 537 q 530 582 543 639 q 550 667 550 705 q 550 731 546 746 q 543 760 538 772 l 534 780 l 500 779 l 432 775 q 374 772 226 772 q 153 772 139 773 q 79 778 66 785 q 60 788 55 794 q 50 801 50 806 q 50 826 83 842 q 116 858 178 868 q 217 875 244 877 q 272 879 315 879 q 359 879 384 876 q 409 873 438 865 q 469 856 497 838 q 525 820 539 800 l 542 795 l 589 798 l 643 802 q 647 802 652 809 q 657 816 666 833 q 676 852 682 861 q 689 870 693 870 q 697 870 700 867 q 702 864 702 860 q 702 854 697 852 q 691 844 680 825 q 669 806 670 805 q 679 805 708 808 q 738 810 777 814 q 898 826 1040 848 q 1183 870 1253 888 q 1258 889 1268 892 q 1279 894 1278 895 q 1277 896 1273 896 q 1265 897 1262 899 q 1258 901 1258 905 q 1258 908 1262 909 q 1267 910 1275 910 l 1291 910 q 1303 910 1308 909 q 1314 908 1317 905 q 1322 898 1316 893 q 1310 888 1288 881 q 1214 860 1036 833 q 859 806 713 793 l 659 789 l 633 740 q 597 676 567 618 q 537 561 532 548 q 498 461 392 252 z m 133 788 q 157 786 223 786 q 317 786 428 789 l 476 792 l 500 793 l 525 795 l 516 804 q 489 833 436 850 q 384 866 316 866 q 304 866 298 865 q 234 864 174 853 q 115 842 88 827 q 79 822 72 815 q 64 808 65 805 q 68 793 133 788 z m 555 768 q 566 741 566 702 q 566 684 563 664 l 560 642 l 600 714 l 639 787 q 625 786 595 784 q 565 783 551 781 z"},"P":{"x_min":0,"x_max":909,"ha":909,"o":"m 423 269 l 430 285 q 430 287 416 287 q 397 287 386 294 q 374 301 374 313 q 374 327 400 352 q 426 377 473 407 l 499 423 l 531 487 q 602 630 659 722 q 677 751 688 762 q 699 772 707 769 q 713 768 713 762 q 713 757 706 743 q 700 729 689 709 q 684 701 679 701 q 674 701 672 707 q 670 710 661 696 q 652 681 634 648 q 602 590 563 515 q 524 440 525 439 l 547 451 q 588 474 622 486 q 657 499 678 499 q 692 499 698 493 q 701 490 701 487 q 701 483 694 483 q 688 483 684 485 q 672 489 634 475 q 595 461 542 432 l 512 415 l 485 361 l 458 306 q 458 304 483 312 q 508 320 536 330 q 613 361 692 408 q 772 454 841 510 q 864 528 898 561 q 931 594 944 612 q 994 680 994 739 q 994 764 986 782 q 979 801 961 817 q 932 844 878 858 q 825 873 754 873 q 633 873 489 834 q 332 791 223 726 q 114 660 77 588 q 65 564 65 542 q 65 491 123 449 q 142 435 168 422 q 195 410 216 405 q 223 403 226 402 q 228 400 228 396 q 228 392 221 392 q 207 392 178 404 q 148 415 123 431 q 106 442 88 460 q 70 479 63 492 q 50 517 50 543 q 50 599 117 665 q 149 695 187 720 q 225 746 278 771 q 368 814 474 844 q 581 874 677 883 q 704 886 750 886 q 788 886 816 884 q 868 878 908 864 q 948 849 970 828 q 984 816 992 805 q 999 794 1004 778 q 1008 768 1008 760 q 1009 751 1009 737 q 1009 713 1004 695 q 999 677 986 651 q 965 607 911 552 q 826 467 688 388 q 632 356 570 330 q 509 303 470 294 l 453 290 q 450 289 438 266 q 426 242 406 197 q 342 61 336 32 q 335 24 334 22 q 332 20 328 19 q 326 19 324 20 q 323 20 322 21 q 318 27 323 44 q 328 60 344 98 q 361 136 384 188 q 408 239 423 269 z m 419 301 l 438 301 l 461 348 q 470 366 476 378 q 482 391 483 395 q 482 397 455 378 q 428 358 416 348 q 405 338 398 328 q 390 318 390 312 q 390 306 396 304 q 403 301 419 301 z"},"|":{"x_min":0,"x_max":71,"ha":71,"o":"m 43 737 q 47 737 49 735 q 51 731 50 719 q 45 688 40 564 q 35 440 35 359 q 35 318 37 304 q 40 293 37 290 q 35 288 33 288 q 31 288 27 291 q 20 297 20 360 q 20 406 21 439 q 28 723 38 735 q 40 737 43 737 z"},"t":{"x_min":0,"x_max":127,"ha":127,"o":"m 156 643 q 154 643 150 644 q 146 644 138 632 q 131 620 117 598 l 104 577 l 125 578 l 139 579 q 147 579 148 576 q 151 574 151 571 q 151 568 149 566 q 145 565 137 565 q 129 565 121 564 l 96 563 l 83 540 q -17 362 -4 344 q -1 338 20 352 q 40 365 87 405 q 136 447 139 447 q 143 447 145 442 q 147 439 145 436 q 143 434 131 423 q 119 412 98 394 q 59 360 44 350 q 30 339 17 333 q 4 326 -3 326 q -5 326 -11 328 q -20 331 -20 349 q -20 365 -12 389 q -6 406 15 450 q 36 493 54 524 q 74 557 74 560 q 76 562 68 562 q 46 562 34 562 q 23 561 17 561 q 11 561 8 562 q 4 563 4 566 q 4 571 11 573 q 18 575 35 576 q 58 576 68 577 l 86 578 l 97 597 q 108 616 128 645 q 147 674 157 687 q 162 693 167 694 q 172 696 175 692 q 177 688 177 686 q 177 679 167 659 q 160 643 156 643 z"},"M":{"x_min":0,"x_max":1661,"ha":1661,"o":"m 294 221 q 227 221 174 234 q 120 248 87 272 q 50 299 50 344 q 50 394 98 456 q 147 517 234 580 q 330 648 463 712 q 596 775 705 805 q 763 822 806 822 q 847 822 868 809 q 890 796 900 766 q 904 754 904 725 q 904 698 900 679 q 885 591 826 451 l 813 417 q 813 416 833 440 q 890 506 957 570 q 1024 633 1070 664 q 1097 682 1108 682 q 1114 682 1121 677 q 1125 674 1126 670 q 1126 666 1126 658 q 1126 635 1106 588 q 1086 540 1033 435 l 983 334 l 1003 364 q 1051 435 1122 526 q 1194 616 1250 677 q 1344 781 1438 842 q 1526 900 1562 900 q 1576 900 1584 892 q 1588 888 1589 884 q 1590 881 1590 869 q 1589 850 1580 825 q 1570 800 1543 750 q 1516 699 1455 593 q 1370 443 1336 380 q 1301 316 1279 267 q 1248 200 1235 160 q 1222 120 1222 90 q 1222 49 1245 49 q 1255 49 1269 56 q 1298 69 1348 114 q 1398 159 1537 296 q 1642 400 1667 424 q 1692 447 1697 446 q 1701 445 1701 440 q 1701 435 1599 334 l 1444 183 q 1365 106 1325 74 q 1285 42 1261 36 q 1249 33 1246 33 q 1229 33 1218 48 q 1207 63 1207 88 q 1207 110 1214 142 q 1222 174 1235 207 q 1261 270 1301 346 q 1341 423 1443 602 q 1514 726 1540 778 q 1567 830 1574 855 q 1577 867 1577 872 q 1577 878 1573 882 q 1570 885 1567 886 q 1564 886 1558 885 q 1538 882 1497 860 q 1456 837 1412 805 q 1303 724 1177 569 q 1040 401 964 274 q 949 249 941 236 q 933 224 929 223 q 925 223 922 224 q 920 225 918 229 q 917 236 930 263 q 942 290 1006 414 q 1109 614 1112 658 q 1112 663 1112 665 q 1111 667 1107 666 q 1096 665 1061 638 q 1026 612 977 568 q 938 532 892 482 q 845 432 811 389 q 794 367 786 354 q 778 341 756 296 q 719 222 686 162 q 654 103 638 82 q 634 76 630 72 q 627 69 623 69 q 612 69 612 78 q 612 92 637 143 q 659 188 690 240 q 721 291 751 334 q 767 356 774 370 q 781 384 801 429 q 836 511 859 580 q 882 650 887 692 q 889 712 889 724 q 889 758 883 771 q 879 781 870 790 q 860 798 849 802 q 836 807 809 807 q 789 807 771 804 q 674 789 521 721 q 368 653 256 576 q 209 544 169 508 q 129 471 106 441 q 93 424 82 402 q 71 381 67 367 q 64 355 64 344 q 64 275 185 248 q 240 235 310 235 q 326 235 366 237 q 385 239 407 239 q 418 239 419 238 q 423 237 423 233 q 423 229 420 227 q 416 225 374 223 q 331 221 294 221 z m 637 108 q 637 104 674 172 q 723 259 718 257 q 712 249 692 214 q 672 178 656 147 q 637 110 637 108 z"},"g":{"x_min":0,"x_max":227,"ha":227,"o":"m 234 425 q 206 407 134 355 l 103 333 l 83 294 q 48 225 7 163 q -34 101 -72 58 q -97 29 -130 0 q -164 -28 -179 -33 q -188 -37 -194 -37 q -196 -37 -202 -35 q -215 -29 -215 -10 q -215 3 -209 18 q -203 34 -186 64 q -181 74 -164 96 q -147 118 -130 139 q -98 179 -40 234 q 19 288 74 330 q 86 340 90 344 q 93 349 101 367 q 123 416 126 437 q 127 442 126 444 q 126 447 123 447 q 119 447 107 440 q 95 433 84 425 q 72 416 72 411 q 72 408 70 406 q 69 405 65 405 q 57 404 36 384 q 6 356 -8 345 q -21 334 -28 334 q -41 334 -41 349 q -41 375 -8 424 q 2 440 15 452 q 28 465 36 467 q 44 469 47 468 q 66 466 70 446 l 73 439 l 90 448 q 113 463 124 463 q 134 463 139 453 q 142 447 142 441 q 142 436 136 416 q 131 397 124 380 l 119 365 l 139 378 q 161 395 199 420 q 237 445 240 445 q 244 445 246 442 q 248 439 247 435 q 244 429 234 425 z m -194 -21 q -188 -21 -177 -14 q -158 -3 -127 25 q -96 53 -73 80 q -11 156 37 242 q 74 307 71 307 q 69 307 36 280 q 4 252 -24 226 q -80 176 -122 125 q -164 74 -185 32 q -205 -7 -199 -18 q -198 -21 -194 -21 z m 2 373 l 41 409 l 59 426 l 57 437 q 57 439 56 444 q 54 449 51 452 l 47 454 q 45 454 37 450 q 23 441 4 415 q -10 395 -20 372 q -29 349 -22 353 q -18 355 2 373 z"},"j":{"x_min":0,"x_max":115,"ha":115,"o":"m 135 436 q 135 431 125 427 q 111 421 50 382 q -11 342 -16 336 l -35 296 q -100 161 -139 99 q -178 36 -222 -2 q -266 -39 -300 -39 q -313 -39 -319 -36 q -340 -26 -340 0 q -340 20 -327 46 q -297 104 -217 186 q -137 268 -47 333 l -30 345 l -12 388 q -3 409 2 420 q 6 432 6 436 l 6 441 q 6 447 12 458 q 21 473 28 473 l 32 471 q 35 468 35 465 q 35 456 11 400 q -3 369 -3 366 q -3 365 33 388 q 110 439 125 442 q 131 443 134 440 q 135 439 135 436 z m -301 -25 q -291 -25 -282 -21 q -247 -7 -209 32 q -176 67 -128 149 q -111 179 -46 313 q -50 313 -66 300 q -133 249 -193 188 q -253 128 -289 76 q -325 25 -325 -2 q -325 -25 -301 -25 z m 37 512 q 37 516 40 520 q 43 523 47 523 q 54 523 54 516 q 54 508 47 505 q 45 504 44 504 q 42 504 40 505 q 37 508 37 512 z"},"i":{"x_min":0,"x_max":98,"ha":98,"o":"m 118 437 q 119 431 72 389 q 26 347 12 340 q 4 338 -1 338 q -9 338 -13 341 q -20 347 -20 358 q -20 379 5 425 q 18 448 24 456 q 30 463 34 463 q 41 463 41 458 q 41 450 31 436 q 17 414 6 390 q -4 366 -4 357 q -4 337 75 412 q 90 427 98 434 q 107 442 111 442 q 116 442 118 437 z m 57 506 q 60 515 66 515 q 71 515 73 513 q 75 512 75 509 q 75 505 70 499 q 65 494 63 494 q 61 493 56 496 q 54 498 54 500 q 54 502 57 506 z"},"y":{"x_min":0,"x_max":209,"ha":209,"o":"m 205 421 q 180 405 150 382 q 119 360 96 343 l 80 331 l 53 282 q 6 195 -34 134 q -71 77 -110 36 q -148 -6 -174 -20 q -184 -25 -193 -25 q -200 -25 -206 -21 q -212 -19 -212 -5 q -212 22 -180 74 q -148 126 -95 186 q -71 212 -28 254 q 16 297 39 317 l 68 341 l 88 383 q 101 410 110 432 q 120 455 117 452 q 117 452 97 432 l 82 416 q 28 361 9 348 q 1 344 -6 344 q -14 344 -20 348 q -26 353 -26 363 q -26 378 -17 398 q -8 419 8 441 q 15 451 21 451 q 27 451 27 446 q 27 441 16 425 q -8 388 -10 367 l -10 362 q -10 358 -8 357 q -7 356 -1 360 q 21 374 73 429 q 94 452 106 463 q 117 474 122 475 l 125 475 q 134 474 134 462 q 134 443 106 384 l 98 365 l 106 370 q 132 391 174 419 q 215 447 220 447 q 224 447 227 444 q 230 441 228 438 q 223 433 205 421 z m -198 -5 q -198 -11 -194 -11 q -190 -11 -179 -5 q -158 8 -126 42 q -94 75 -65 117 q -21 179 37 285 l 47 303 l 32 290 q -2 261 -55 204 q -108 148 -133 115 q -154 88 -172 57 q -190 26 -195 7 q -198 -1 -198 -5 z"},"@":{"x_min":0,"x_max":472,"ha":472,"o":"m 355 464 q 318 433 294 433 q 272 433 269 457 q 267 464 266 465 q 265 466 262 463 q 258 459 236 442 q 215 426 201 417 q 189 411 181 411 q 166 411 166 428 q 166 444 186 474 q 205 504 232 531 q 259 558 281 569 q 292 575 300 575 q 316 575 316 557 q 316 550 314 544 q 311 538 308 538 q 304 538 302 542 q 300 547 301 553 q 301 555 302 558 q 302 560 301 560 q 290 560 262 536 q 233 512 213 485 q 197 463 187 444 q 177 425 182 425 q 187 425 218 448 q 250 472 270 490 q 279 498 283 500 q 287 501 290 497 q 291 496 291 493 q 291 490 288 481 q 284 470 284 461 q 284 448 295 448 q 297 448 305 450 q 321 455 345 476 q 369 496 388 521 q 437 586 437 645 q 437 680 416 697 q 395 714 352 714 q 326 714 302 708 q 279 701 247 685 q 189 656 142 609 q 95 562 65 504 q 51 477 42 446 q 34 415 34 392 q 34 361 48 336 q 62 311 85 302 q 107 294 132 294 q 197 294 307 349 q 340 365 356 376 q 371 387 377 399 q 387 415 393 405 q 394 404 394 402 q 394 398 390 390 q 385 380 379 374 q 356 353 288 322 q 221 292 177 284 q 160 280 134 280 q 113 280 99 283 q 68 290 50 309 q 31 328 23 361 q 20 372 20 391 q 20 425 26 444 q 42 505 82 562 q 123 620 180 662 q 224 695 268 712 q 313 729 352 729 q 381 729 405 720 q 452 702 452 646 q 452 601 425 550 q 398 500 355 464 z"},".":{"x_min":0,"x_max":64,"ha":64,"o":"m 31 359 q 38 359 41 355 q 47 345 41 339 q 33 330 24 336 q 20 340 20 347 q 20 353 23 356 q 26 359 31 359 z"},"p":{"x_min":0,"x_max":198,"ha":198,"o":"m 133 404 l 107 394 l 92 375 q 76 356 56 336 q 25 305 8 305 q 4 305 -2 309 q -6 313 -6 319 q -6 333 16 354 q 38 374 73 393 q 84 398 90 402 q 96 407 100 414 q 107 425 114 440 q 122 456 122 460 q 122 466 108 458 q 94 451 76 437 q 20 389 -66 256 q -99 205 -171 55 q -191 10 -195 6 q -199 2 -204 3 q -210 4 -210 10 q -210 24 -186 74 q -163 123 -128 184 q -112 211 -62 308 q -13 406 7 451 l 22 479 q 24 481 28 483 q 34 483 34 477 q 35 473 19 438 q 3 404 -20 358 l -28 340 q -28 338 -15 357 q 25 411 62 444 q 100 478 122 478 q 137 478 137 462 q 137 451 128 431 l 120 414 l 130 419 l 170 433 q 200 442 210 442 q 218 442 218 437 q 218 429 208 428 q 203 428 179 420 q 155 413 133 404 z m 20 326 q 25 329 50 352 q 74 375 69 374 q 65 373 49 361 q 33 349 25 341 q 8 322 12 322 q 15 322 20 326 z"},"X":{"x_min":0,"x_max":995,"ha":995,"o":"m 751 152 q 690 87 657 63 q 624 39 597 38 q 590 38 585 39 q 580 40 574 44 q 530 69 530 182 q 530 227 538 299 q 550 383 555 410 q 556 414 551 410 q 546 405 525 382 q 504 359 463 314 q 286 118 216 56 q 133 -16 89 -16 q 85 -16 77 -14 q 67 -10 60 -2 q 54 6 58 10 q 61 13 63 13 q 67 13 73 6 q 77 2 80 0 q 82 -1 86 -1 q 96 -1 104 1 q 111 3 125 9 q 171 32 241 100 q 311 168 450 322 l 529 408 q 546 427 554 436 q 561 446 562 452 q 597 637 607 730 q 608 741 608 766 q 608 812 604 827 q 597 852 583 863 q 569 874 543 874 q 533 874 520 872 q 506 871 499 868 q 432 850 346 793 q 259 736 182 659 q 125 603 96 556 q 66 510 66 477 q 66 459 72 450 q 79 441 95 436 q 102 434 104 432 q 107 430 107 426 q 107 423 106 422 q 104 421 97 422 q 83 422 70 432 q 58 443 53 458 q 50 467 50 478 q 50 551 179 678 q 275 771 376 830 q 478 889 543 889 q 586 889 605 862 q 624 835 624 773 q 624 717 611 638 q 597 553 594 538 l 582 469 q 582 465 623 508 q 703 590 779 665 q 1053 933 1106 958 q 1114 963 1122 963 q 1127 963 1131 960 q 1135 957 1135 953 q 1135 950 1132 949 q 1130 948 1125 948 q 1116 948 1102 939 q 1089 930 1060 906 q 991 849 834 697 q 677 545 588 449 l 576 437 l 570 403 q 545 256 545 178 q 545 126 556 93 q 569 53 597 53 q 605 53 609 54 q 632 60 662 86 q 692 112 754 178 q 842 273 926 356 q 1009 440 1019 444 q 1025 445 1027 442 q 1028 440 1028 438 q 1029 437 1028 436 q 1028 434 997 405 q 955 366 912 321 q 854 263 751 152 z"},"*":{"x_min":0,"x_max":189,"ha":189,"o":"m 141 669 q 137 667 128 662 q 118 656 114 652 q 111 649 111 645 q 111 641 115 634 q 119 627 126 618 q 139 599 142 592 q 144 585 137 585 q 133 585 128 591 q 123 597 115 609 l 102 627 l 94 606 q 85 583 78 562 q 74 550 72 545 q 69 540 65 540 q 61 540 59 544 q 56 551 76 601 l 88 634 q 89 637 68 623 q 47 609 37 601 q 31 595 28 595 q 26 596 23 599 q 20 602 20 604 q 20 609 60 636 l 83 653 q 82 655 78 660 q 74 666 69 674 q 62 684 58 689 q 55 694 54 695 q 54 696 58 700 q 65 706 83 680 q 96 662 98 662 q 101 663 120 706 q 128 724 132 732 q 136 739 140 740 q 146 740 147 736 q 148 735 148 733 q 148 729 141 716 q 134 703 130 692 q 126 682 126 679 l 144 688 q 157 695 163 696 q 169 697 169 692 q 169 688 164 684 q 159 680 141 669 z"},"Y":{"x_min":0,"x_max":1033,"ha":1033,"o":"m 768 223 q 716 136 662 68 q 609 1 568 -30 q 537 -53 520 -53 q 513 -53 508 -50 q 500 -45 500 -34 q 500 -26 507 -8 q 533 45 614 125 q 668 179 736 232 l 770 260 q 781 271 866 430 q 951 590 998 689 q 1044 783 1058 819 q 1060 823 1066 837 q 1068 841 1068 842 q 1068 843 1066 842 q 1056 832 922 641 q 880 580 812 487 q 744 396 694 346 q 644 295 598 272 q 562 255 544 255 q 529 255 518 264 q 509 272 506 282 q 502 293 502 311 q 502 345 519 396 q 536 445 566 508 q 597 570 665 693 q 711 776 728 812 q 745 848 745 865 q 745 875 742 880 q 739 885 731 890 q 721 895 699 895 q 666 895 622 886 q 527 867 400 815 q 272 763 195 711 q 164 690 135 664 q 106 637 93 617 q 60 569 66 531 q 70 505 90 484 q 110 464 155 438 q 249 385 348 375 q 381 371 385 370 q 389 368 390 364 q 390 360 386 359 q 382 357 346 361 q 311 365 291 369 q 224 384 156 421 q 88 458 66 492 q 50 514 50 547 q 50 560 53 572 q 64 609 98 648 q 132 686 184 721 q 271 779 408 834 q 544 888 644 905 q 661 907 693 909 q 718 909 728 906 q 760 896 760 866 q 760 845 742 806 q 725 768 670 670 l 622 582 q 607 555 584 509 q 562 463 553 441 q 517 357 517 308 q 517 289 523 280 q 530 270 545 270 q 565 270 596 287 q 626 304 661 335 q 702 371 756 440 q 811 509 916 658 q 964 728 1051 848 q 1062 863 1071 872 q 1080 880 1084 880 q 1093 880 1093 871 q 1093 856 1044 752 q 996 648 930 518 q 864 389 817 308 l 807 288 q 809 288 843 313 q 921 369 980 404 q 1039 440 1056 441 q 1061 442 1062 441 q 1064 440 1064 436 q 1065 433 1064 432 q 1062 430 1058 429 q 994 403 841 293 q 798 262 790 254 q 782 247 768 223 z m 515 -34 q 515 -39 519 -39 q 525 -39 534 -34 q 584 -11 664 95 q 687 127 718 174 q 749 221 748 222 q 747 223 721 202 q 695 181 671 160 q 613 108 569 55 q 525 2 516 -26 q 515 -29 515 -34 z"},"c":{"x_min":0,"x_max":135,"ha":135,"o":"m 109 399 q 69 366 44 351 q 20 336 5 336 q -1 336 -7 339 q -12 343 -16 351 q -20 359 -20 367 q -20 389 -2 419 q 16 449 38 464 q 50 473 58 473 q 63 473 68 468 q 74 459 74 449 q 74 443 73 439 q 71 430 68 427 q 66 424 61 425 q 53 428 57 438 q 58 443 58 452 l 58 459 l 45 450 q 27 438 13 414 q -1 390 -3 371 l -4 362 q -4 357 -1 354 q 2 351 6 351 q 13 351 29 360 q 42 366 60 379 q 77 392 101 411 q 120 428 132 437 q 144 446 148 446 q 151 447 154 442 q 156 440 154 437 q 152 434 140 424 q 129 415 109 399 z"},"!":{"x_min":0,"x_max":294,"ha":294,"o":"m 47 293 q 47 307 181 553 l 239 659 q 261 701 266 701 q 267 700 268 700 q 270 700 271 699 q 274 698 274 692 q 274 686 268 669 q 255 635 249 635 q 247 635 240 625 q 234 615 221 593 q 120 409 82 334 l 57 286 l 54 286 q 47 286 47 293 z m 40 262 q 43 259 43 257 q 43 253 39 244 q 34 228 28 227 l 26 227 q 20 229 20 234 q 20 240 22 244 q 30 261 33 264 q 36 267 40 262 z"},"/":{"x_min":0,"x_max":417,"ha":417,"o":"m 437 728 q 437 725 395 683 q 345 632 199 468 q 79 334 25 271 q 12 255 0 244 q -11 232 -13 232 q -16 232 -18 234 q -20 235 -20 238 q -20 242 -4 261 q 27 298 143 430 q 259 561 315 622 q 351 662 388 699 q 425 736 429 736 q 432 736 434 734 q 437 731 437 728 z"},"[":{"x_min":0,"x_max":379,"ha":379,"o":"m 154 493 q 128 443 83 350 q 38 256 38 251 q 38 250 75 250 l 93 250 q 114 250 115 249 q 117 246 116 242 q 116 239 112 238 q 106 236 67 236 q 29 236 23 238 q 20 240 20 245 q 20 253 60 338 q 101 423 139 497 l 234 680 l 267 745 q 271 753 274 755 q 276 757 283 757 l 323 759 q 332 760 343 760 q 353 760 356 758 q 359 757 359 752 q 359 748 350 747 q 340 746 317 744 l 283 741 l 264 706 q 205 589 154 493 z"},"6":{"x_min":0,"x_max":292,"ha":292,"o":"m 69 489 q 70 488 79 495 q 107 518 134 528 q 151 534 168 534 q 186 534 198 528 q 207 524 214 514 q 220 504 220 493 q 220 460 186 415 q 151 370 112 351 q 103 347 98 346 q 92 344 81 344 l 74 344 q 62 344 60 345 q 47 350 39 368 q 31 385 31 406 q 31 413 31 420 q 31 426 30 427 q 30 428 27 428 q 20 428 20 433 q 20 439 32 454 q 42 465 46 477 q 65 527 114 594 q 162 660 208 700 q 226 716 242 726 q 257 736 262 736 q 266 736 269 734 q 272 731 272 729 q 272 723 265 722 q 258 720 237 703 q 216 686 197 668 q 125 594 77 508 q 68 490 69 489 z m 52 375 q 60 357 78 357 q 100 357 130 380 q 160 404 182 436 q 204 469 204 491 q 204 505 196 512 q 189 519 173 519 q 148 519 124 507 q 115 502 91 484 q 67 466 60 459 q 47 445 47 405 q 47 394 48 388 q 49 381 52 375 z"},"r":{"x_min":0,"x_max":154,"ha":154,"o":"m 174 443 q 174 439 169 436 q 164 433 140 423 q 108 410 94 410 q 82 410 76 419 q 71 428 71 447 l 71 464 l 63 455 q 45 436 3 368 q -17 334 -22 334 q -24 334 -27 337 q -30 339 -30 341 l -28 349 q -25 362 -14 388 q -3 414 6 431 q 12 443 16 448 q 19 454 23 454 q 29 455 30 451 l 31 447 q 31 444 27 437 l 24 430 q 24 428 38 448 q 54 470 63 476 q 72 483 80 478 q 84 475 84 470 q 85 464 85 449 q 85 434 88 429 q 91 424 99 425 q 106 425 136 438 q 159 448 166 448 q 174 449 174 443 z"},"2":{"x_min":0,"x_max":401,"ha":401,"o":"m 76 358 q 140 366 223 371 l 245 372 q 257 372 258 368 q 261 362 255 360 q 249 357 225 356 q 191 355 132 349 q 73 343 35 338 q 28 338 25 339 q 20 340 20 347 q 20 351 25 356 q 30 360 42 368 l 98 405 q 153 439 195 473 q 227 499 263 534 q 299 569 322 598 q 367 653 367 679 q 367 702 325 702 q 286 702 247 683 q 215 668 191 646 q 181 635 176 626 q 170 616 168 604 q 167 598 166 595 q 164 592 162 592 q 154 590 154 604 q 154 615 160 628 q 176 662 226 690 q 277 717 322 717 q 381 717 381 678 q 381 664 374 649 q 360 618 320 570 q 279 523 224 476 q 178 437 76 372 q 53 356 53 356 z"},"{":{"x_min":0,"x_max":298,"ha":298,"o":"m 278 735 q 278 731 273 730 q 268 728 266 731 q 264 733 261 733 q 255 733 247 728 q 231 715 205 662 q 159 564 145 545 q 139 537 128 528 q 116 518 112 518 q 104 517 108 507 q 111 500 111 485 q 111 471 108 462 q 103 447 78 397 q 52 343 44 322 q 35 301 35 288 q 35 276 42 268 q 48 261 58 261 q 64 261 67 260 q 70 260 71 257 q 72 255 72 253 q 71 251 69 249 q 65 245 58 245 q 54 245 42 249 q 34 254 31 257 q 28 260 24 267 q 20 279 20 289 q 20 305 26 321 q 29 335 61 399 q 78 435 88 456 q 97 478 97 487 q 97 494 94 500 q 92 505 90 506 q 88 508 83 509 q 71 512 68 514 q 65 516 65 521 q 66 526 68 526 q 70 527 81 527 q 95 527 106 532 q 116 537 127 548 q 137 558 146 574 q 154 591 177 640 q 194 677 206 698 q 217 720 226 730 q 236 741 246 746 q 257 750 266 748 q 270 747 274 742 q 278 738 278 735 z"},"9":{"x_min":0,"x_max":267,"ha":267,"o":"m 247 722 q 247 718 229 687 q 179 601 130 503 q 82 405 61 346 q 58 336 56 332 q 53 328 49 327 q 45 327 44 328 q 43 330 43 334 q 43 350 81 434 q 102 483 142 561 q 182 639 201 670 q 206 676 167 641 q 155 631 147 623 q 110 588 88 572 q 65 555 48 550 q 40 548 38 548 q 27 548 21 559 q 15 575 35 611 q 55 647 89 681 q 125 717 150 717 q 162 717 167 710 q 172 704 172 690 q 172 671 170 667 q 172 668 181 676 q 190 684 202 698 q 216 711 226 720 q 235 730 239 732 q 247 732 247 722 z m 40 563 q 46 563 54 568 q 69 575 87 590 q 105 604 138 635 q 152 647 156 652 q 161 658 158 660 q 155 663 155 665 l 157 679 q 159 695 157 699 q 154 702 149 702 q 136 702 112 681 q 87 660 65 628 q 38 590 36 572 q 35 567 36 565 q 36 563 40 563 z"}," ":{"x_min":0,"x_max":200,"ha":200,"o":""},"I":{"x_min":0,"x_max":608,"ha":608,"o":"m 396 873 q 413 873 420 874 q 694 908 810 908 q 852 908 865 906 q 878 905 884 899 q 888 895 888 890 q 888 883 882 878 q 869 868 864 877 q 862 880 863 882 q 864 884 867 886 l 872 891 l 864 892 q 856 894 826 894 q 784 894 730 890 l 702 888 q 656 885 598 879 l 548 874 l 502 869 l 443 862 l 436 861 l 448 855 q 521 821 532 737 q 534 728 535 729 q 536 729 545 744 q 564 776 585 810 q 606 843 616 858 q 621 863 623 863 q 629 863 632 854 q 634 844 628 843 q 626 843 592 790 q 552 723 542 705 q 532 687 530 677 q 518 580 428 395 q 398 335 374 290 q 350 245 297 154 l 257 84 l 285 85 q 318 87 363 87 q 394 87 408 86 q 447 84 466 79 q 485 74 490 64 q 492 60 492 56 q 491 52 488 52 q 484 52 479 57 q 469 65 446 68 q 424 71 381 71 l 343 71 q 237 69 181 62 q 140 57 106 48 q 72 40 65 33 q 60 28 57 28 q 53 28 51 33 q 49 38 51 42 q 56 52 98 62 q 140 73 201 79 q 221 81 229 82 q 237 84 237 88 q 237 96 252 136 q 266 175 285 220 q 354 376 404 480 q 454 584 506 678 l 520 702 l 518 726 q 517 771 496 800 q 476 829 435 845 q 404 858 377 855 q 355 853 350 853 q 328 853 326 862 l 326 865 q 326 870 332 872 q 337 874 353 874 l 388 873 z m 292 176 l 302 193 q 380 329 426 424 q 471 518 495 596 q 501 614 505 628 q 509 643 508 644 q 507 646 466 565 q 424 484 392 417 l 310 236 q 297 208 286 181 q 275 154 271 143 q 271 140 292 176 z"},"H":{"x_min":0,"x_max":965,"ha":965,"o":"m 302 535 q 335 535 367 527 q 441 509 478 448 l 485 434 l 485 433 l 486 433 l 486 433 l 486 432 q 496 412 499 394 q 502 377 502 345 l 502 309 l 516 311 q 531 315 531 315 l 696 639 l 765 777 q 790 828 790 833 q 790 839 760 797 q 727 754 697 702 q 676 665 662 628 q 648 590 653 585 q 656 583 654 578 q 654 574 650 573 q 645 572 641 576 q 637 580 637 586 q 637 607 662 662 q 686 717 718 766 q 739 797 768 834 q 798 870 807 876 q 811 878 814 878 q 822 878 823 872 l 823 870 q 823 865 818 852 q 794 801 732 678 q 671 556 601 418 l 552 319 q 553 318 645 340 q 706 358 792 385 l 825 396 l 847 437 q 906 549 956 634 q 1006 718 1076 824 l 1122 895 q 1128 905 1135 905 q 1141 903 1141 894 q 1141 887 1136 884 q 1132 882 1090 817 q 1043 745 1012 696 q 982 646 941 575 q 917 535 882 471 q 848 407 849 405 q 850 404 914 426 q 978 448 990 453 q 998 457 1003 457 q 1009 457 1009 449 q 1009 444 992 438 q 975 431 912 410 l 836 384 l 785 281 q 735 181 710 125 q 684 69 662 13 q 645 -32 628 -82 q 612 -132 612 -139 q 612 -143 618 -138 q 620 -135 622 -134 q 624 -134 626 -135 q 630 -138 630 -141 q 630 -147 622 -155 q 606 -169 598 -161 q 596 -159 596 -153 q 596 -125 632 -27 q 657 45 685 108 q 713 172 767 281 q 815 376 813 376 l 783 367 q 727 348 666 330 q 605 313 566 306 l 543 301 l 519 253 q 511 238 489 192 l 466 145 q 447 105 438 86 q 428 68 424 68 q 417 68 417 74 q 417 85 438 142 q 471 236 479 272 l 483 290 l 447 285 q 390 277 360 275 q 331 273 282 273 q 231 273 208 275 q 184 277 154 285 q 104 298 77 322 q 50 345 50 376 q 50 404 72 432 q 93 461 129 484 l 162 502 q 229 535 302 535 z m 70 353 q 84 327 126 310 q 167 292 228 288 q 246 287 274 287 q 305 287 326 288 q 365 290 424 297 q 482 304 485 307 q 487 309 488 332 q 489 356 488 371 q 478 460 402 499 q 356 521 305 521 q 275 521 240 513 q 184 500 136 470 q 89 440 73 406 q 68 396 66 390 q 65 385 65 376 q 65 361 70 353 z m 489 228 l 502 255 q 512 275 516 285 q 520 295 516 296 l 507 294 l 499 293 l 495 276 q 487 240 474 200 q 472 193 489 228 z"},"4":{"x_min":0,"x_max":274,"ha":274,"o":"m 225 600 q 202 555 186 521 q 170 487 171 485 l 182 486 q 185 487 189 487 q 199 487 199 480 q 199 476 194 474 q 190 472 176 470 l 162 468 l 129 397 q 117 369 106 348 q 96 326 94 325 q 91 324 88 325 q 84 327 84 331 q 86 338 94 356 q 102 374 114 399 q 143 465 142 465 l 116 463 q 90 459 62 459 q 46 459 38 460 q 30 460 26 463 q 21 466 20 476 q 20 481 26 494 q 32 508 45 534 q 73 588 102 644 q 132 700 145 723 q 147 726 151 726 q 155 726 157 722 q 158 720 148 700 q 138 681 118 642 q 32 478 34 475 q 35 474 49 474 q 73 474 107 476 q 141 479 148 482 q 151 483 170 523 q 182 550 204 594 q 226 638 239 661 q 245 670 249 670 q 254 670 254 666 q 254 661 246 644 q 239 627 225 600 z"},"~":{"x_min":0,"x_max":191,"ha":191,"o":"m 169 466 l 171 462 q 171 457 154 441 q 125 415 111 415 q 104 415 100 419 q 94 423 87 438 q 79 451 75 455 q 70 460 56 450 q 43 441 36 427 q 31 418 26 418 q 20 418 20 424 q 20 430 24 438 q 29 446 38 454 q 45 463 52 466 q 60 470 73 470 q 80 470 85 466 q 90 461 98 448 q 107 431 110 430 q 113 429 126 438 q 138 447 148 457 q 157 466 162 468 q 166 470 169 466 z"},"D":{"x_min":0,"x_max":992,"ha":992,"o":"m 50 503 q 50 577 129 658 q 220 748 366 808 q 511 869 661 879 q 674 880 699 880 q 751 880 799 871 q 847 862 878 847 q 939 815 957 759 q 961 746 962 736 q 963 725 963 699 q 963 675 955 643 q 944 599 914 540 q 883 482 838 422 q 822 400 822 400 q 834 402 845 406 q 881 416 925 427 q 969 438 996 444 l 1013 446 q 1020 446 1021 442 l 1022 439 q 1022 434 1011 432 q 987 427 944 416 q 900 405 864 395 q 855 392 832 386 q 809 380 804 376 q 800 372 789 358 q 718 272 629 195 q 540 118 455 69 q 393 34 338 14 q 283 -5 246 -5 q 229 -5 218 -1 q 209 2 204 6 q 200 9 196 16 q 193 24 193 31 q 193 48 208 72 q 248 135 384 217 l 416 236 l 425 256 q 460 335 556 532 q 593 605 618 652 q 643 700 665 736 q 694 784 709 804 q 724 824 732 824 q 741 824 741 812 q 741 805 740 800 q 738 793 736 790 q 735 787 732 786 q 728 786 725 791 l 722 796 l 713 784 q 685 745 632 646 q 579 546 517 417 q 491 363 468 316 q 446 268 439 251 q 439 249 488 273 q 561 309 616 330 q 672 352 768 382 l 795 391 l 817 421 q 949 600 949 708 q 949 733 941 759 q 927 802 880 828 q 833 855 758 862 q 745 864 704 864 q 651 864 611 860 q 513 846 418 812 q 323 778 249 731 q 106 641 72 545 q 64 521 64 502 q 64 462 94 423 q 106 408 117 398 q 128 389 144 381 q 146 380 152 377 q 157 374 158 372 q 160 370 160 368 q 160 363 155 363 q 150 363 136 369 q 106 385 85 411 q 50 455 50 503 z m 245 10 q 265 10 299 18 q 372 37 460 90 q 548 143 637 223 q 669 251 722 308 q 776 365 774 367 q 773 368 729 354 q 685 340 650 328 q 567 295 486 255 l 429 226 l 421 210 q 412 191 406 172 q 399 152 397 143 q 396 129 391 129 q 382 129 382 141 q 382 156 394 184 q 403 208 402 208 q 401 210 369 190 q 337 170 312 151 q 265 116 236 83 q 207 50 207 31 q 207 10 245 10 z"},"^":{"x_min":0,"x_max":186,"ha":186,"o":"m 166 351 q 166 346 163 344 q 160 343 157 344 q 153 346 144 376 q 132 410 116 452 q 99 494 92 507 l 85 521 l 81 517 q 70 502 53 461 q 34 416 28 413 q 24 413 22 415 q 20 417 20 420 q 20 423 26 436 q 28 440 38 464 q 58 510 71 527 q 79 535 86 535 q 92 535 98 529 q 107 519 136 442 q 166 365 166 351 z"},"0":{"x_min":0,"x_max":296,"ha":296,"o":"m 20 415 q 20 452 35 495 q 56 558 94 609 q 106 625 112 631 q 119 637 124 637 q 128 637 132 640 q 135 644 141 653 q 149 665 174 690 q 207 724 232 726 q 241 726 248 723 q 255 720 259 716 q 263 712 268 704 q 276 689 276 663 q 276 629 259 582 q 242 536 210 483 q 173 422 132 385 q 91 348 62 348 q 42 348 31 366 q 20 384 20 415 z m 55 363 q 57 362 61 362 q 74 362 89 371 q 119 387 155 432 q 191 477 220 532 q 249 588 257 631 q 260 646 260 664 q 260 682 257 691 q 251 712 235 712 q 229 712 219 708 q 180 687 144 628 q 132 608 116 578 q 101 549 101 545 q 101 541 98 539 q 96 537 93 537 q 86 537 86 544 q 86 552 103 586 l 115 610 q 116 614 104 596 q 92 578 82 563 q 36 480 36 416 q 36 392 40 380 q 45 367 55 363 z"},"F":{"x_min":0,"x_max":757,"ha":757,"o":"m 173 857 q 267 904 371 919 q 383 921 431 921 q 480 921 490 919 q 532 912 564 896 q 597 881 613 860 l 628 838 l 634 826 l 679 837 q 831 874 941 894 q 1051 914 1153 924 q 1228 932 1275 932 q 1391 932 1418 902 q 1427 892 1427 881 q 1427 860 1402 843 q 1392 836 1386 834 q 1381 833 1378 837 q 1377 838 1377 840 q 1377 845 1390 854 q 1398 859 1405 868 q 1412 877 1412 883 q 1412 887 1404 894 q 1397 900 1387 904 q 1368 911 1350 913 q 1331 915 1276 915 q 1240 915 1214 914 q 1188 913 1160 910 q 983 891 794 848 l 747 837 q 640 812 639 811 l 639 810 l 640 802 q 643 795 643 756 q 643 719 638 695 q 630 655 615 605 l 608 582 q 610 582 665 679 q 712 759 722 770 q 729 777 734 777 q 740 777 742 772 q 744 770 744 767 q 744 762 742 757 q 738 746 736 743 q 733 740 729 743 l 724 745 q 723 745 676 665 q 664 643 632 589 q 593 523 578 495 q 562 467 548 434 l 529 391 q 527 388 526 386 q 525 384 526 383 q 526 382 572 391 q 676 412 715 412 q 730 412 734 409 q 739 406 738 402 q 738 399 736 398 q 735 397 730 398 q 726 398 721 398 q 701 398 623 385 q 518 365 516 363 l 489 310 q 444 219 398 139 q 352 59 332 37 q 321 25 314 32 q 311 35 311 40 q 311 53 407 227 q 444 295 468 336 l 476 353 q 474 355 416 338 q 358 321 352 317 q 351 316 347 316 q 338 316 337 320 l 335 324 q 335 326 338 329 q 342 332 347 333 q 389 348 451 364 l 490 374 l 495 384 l 527 440 q 554 487 568 521 q 599 600 614 656 q 629 713 629 755 q 629 772 628 788 q 626 804 624 806 q 623 807 505 778 q 318 731 242 716 q 165 701 116 701 q 82 701 66 710 q 50 718 50 737 q 50 764 84 796 q 117 829 173 857 z m 110 716 q 129 716 140 717 q 190 722 264 738 q 338 753 491 791 q 618 822 618 825 q 618 830 608 844 q 597 858 589 865 q 557 894 486 905 q 466 907 434 907 q 404 907 380 905 q 298 894 218 861 q 138 828 97 787 q 64 756 64 735 q 64 725 76 720 q 87 716 110 716 z m 385 149 q 411 195 432 234 q 453 273 452 273 q 450 271 446 264 q 442 258 437 247 q 413 205 402 184 q 373 132 375 132 q 380 139 385 149 z"},"k":{"x_min":0,"x_max":206,"ha":206,"o":"m 200 410 q 138 360 117 350 q 107 345 102 344 q 97 343 84 343 q 74 343 68 344 q 61 344 55 348 q 37 360 32 365 l 21 376 l 14 361 q 9 349 0 323 q -6 306 -9 302 q -12 297 -17 300 q -20 303 -20 305 q -20 310 -19 314 l -3 358 q 7 384 8 390 q 9 396 2 396 q 0 396 -6 400 q -10 403 -10 406 q -10 412 -8 414 q -6 415 1 413 l 11 412 q 17 412 20 418 q 24 424 31 440 q 38 455 41 462 q 144 691 172 720 q 177 725 181 725 q 186 725 188 720 q 189 719 189 716 q 189 711 185 700 q 181 687 178 683 q 174 679 169 681 l 168 681 q 166 681 163 677 q 160 673 155 664 q 135 627 78 504 q 38 416 39 415 l 40 415 q 43 415 57 419 q 88 428 120 455 q 134 465 135 465 q 137 465 140 462 q 143 458 143 456 q 143 453 128 442 q 113 430 97 420 q 77 408 48 401 q 29 397 29 393 q 28 389 40 378 q 52 366 62 362 q 73 356 81 356 q 96 356 112 365 q 123 370 148 389 q 174 408 197 428 q 213 441 218 444 q 224 446 226 438 q 226 434 220 428 q 214 422 200 410 z"},"u":{"x_min":0,"x_max":171,"ha":171,"o":"m 94 351 q 82 346 75 346 q 59 346 59 363 q 59 369 62 379 q 64 389 68 397 q 69 400 45 377 q 21 351 13 348 q 5 344 -3 344 q -11 344 -14 348 q -20 354 -20 365 q -20 388 7 436 q 18 455 23 460 q 28 465 32 464 q 37 462 37 459 q 37 453 26 436 q 9 409 0 386 q -8 364 -4 360 q 0 355 23 376 q 46 398 84 441 l 113 474 l 115 474 q 117 474 120 472 q 123 469 123 466 q 123 462 111 443 q 93 415 82 388 q 70 360 77 360 q 82 360 106 378 q 130 396 162 424 q 173 433 180 438 q 186 442 188 441 q 191 438 191 436 q 191 431 173 414 q 154 396 128 376 q 103 356 94 351 z"},"]":{"x_min":0,"x_max":395,"ha":395,"o":"m 238 486 q 173 369 127 280 l 98 227 q 97 227 90 226 q 83 226 62 226 q 44 226 34 226 q 25 227 24 229 q 17 235 23 238 q 29 240 56 241 q 72 241 89 243 l 121 303 q 159 376 248 536 q 267 569 311 654 q 355 739 355 741 q 355 742 345 742 l 302 742 q 288 742 284 743 q 281 744 281 748 q 281 751 289 754 q 298 757 342 757 q 369 757 373 755 q 375 753 375 750 q 375 743 326 648 q 277 554 238 486 z"},"U":{"x_min":0,"x_max":1049,"ha":1049,"o":"m 159 613 q 233 672 339 729 q 445 786 554 827 q 663 868 748 882 q 771 886 799 886 q 822 886 834 881 q 854 871 854 850 q 854 831 836 794 q 818 756 760 654 l 696 541 l 684 520 q 518 217 518 103 q 518 79 525 66 q 531 53 537 50 q 543 46 557 46 q 627 46 771 224 q 802 262 850 328 q 899 394 934 445 l 956 477 q 966 492 984 530 q 1023 616 1057 675 q 1091 735 1123 776 q 1155 818 1168 818 q 1179 818 1179 808 q 1179 791 1145 736 q 1123 700 1086 643 q 1049 586 1012 531 q 991 501 984 488 q 978 476 963 444 q 931 370 898 284 q 865 199 848 148 q 826 82 826 60 q 826 52 830 49 q 834 47 834 43 q 833 38 826 38 q 820 38 816 42 q 812 46 812 50 q 811 55 811 63 q 811 77 817 99 q 823 121 837 163 q 865 247 925 394 q 930 404 932 411 q 935 418 935 419 l 902 374 q 804 236 736 158 q 713 133 684 104 q 654 76 639 66 q 590 31 555 31 q 542 31 534 35 q 502 50 502 101 q 502 173 563 313 q 617 437 747 663 q 797 751 818 794 q 839 837 839 851 q 839 872 797 872 q 761 872 705 859 q 608 836 494 788 q 380 739 280 678 q 181 618 125 563 q 99 537 86 519 q 73 501 68 482 q 66 476 66 465 q 66 419 137 385 q 152 377 156 374 q 159 370 152 366 q 151 365 149 365 q 144 365 128 373 q 62 405 51 453 q 50 457 50 464 q 50 495 79 534 q 90 549 114 574 q 139 598 159 613 z m 1068 644 q 1101 693 1121 724 q 1141 756 1150 775 l 1161 797 l 1152 787 q 1138 773 1116 741 q 1094 709 1074 674 q 1060 649 1042 615 q 1025 581 1027 583 z"},"o":{"x_min":0,"x_max":153,"ha":153,"o":"m 85 400 q 75 398 72 396 q 69 394 64 386 q 53 372 38 358 q 23 343 14 339 q 5 334 -1 334 l -9 336 q -15 339 -18 344 q -20 352 -20 357 q -20 375 -10 398 q -1 422 13 437 q 18 443 20 444 q 23 446 26 445 q 31 442 31 439 q 31 436 25 428 q 15 416 5 392 q -5 368 -5 357 q -5 350 0 350 q 6 350 18 360 q 30 369 43 386 l 55 401 l 50 405 q 40 414 40 430 q 40 448 54 466 q 69 485 83 486 q 88 486 90 485 q 101 479 101 464 q 101 450 92 432 q 84 415 86 415 q 87 414 105 420 q 123 427 142 435 q 162 444 168 444 q 173 444 173 437 q 173 432 139 418 q 105 403 85 400 z m 63 415 q 65 416 68 420 q 70 423 73 429 q 81 443 84 452 q 90 470 83 470 q 80 470 72 462 q 64 454 60 444 q 55 435 55 427 q 55 421 58 418 q 62 414 63 415 z"},"N":{"x_min":0,"x_max":1045,"ha":1045,"o":"m 55 420 q 50 430 50 446 q 50 476 71 506 q 100 549 160 598 q 219 646 300 692 q 392 745 483 777 q 574 809 629 809 q 638 809 652 807 q 687 801 700 774 q 706 762 706 742 q 706 669 631 504 q 620 479 620 478 q 620 477 632 493 q 690 570 762 646 q 835 722 896 770 q 955 816 1011 850 q 1083 892 1115 892 q 1134 892 1141 879 q 1145 874 1145 862 q 1145 827 1099 739 l 1046 641 q 1007 571 986 531 q 964 491 946 454 q 876 315 825 188 q 774 61 774 24 q 774 15 776 12 q 778 10 782 13 q 784 14 787 14 q 795 14 795 7 q 795 3 790 0 q 785 -2 779 -2 q 770 -2 765 3 q 761 7 759 18 q 755 41 782 118 q 809 196 862 314 q 914 433 1010 608 l 1055 691 q 1131 830 1131 864 q 1131 878 1115 878 q 1081 878 983 814 q 891 754 807 671 q 723 588 635 470 q 600 425 586 402 q 572 378 530 292 q 501 234 482 197 q 462 160 454 150 q 446 140 440 140 q 430 140 430 149 q 430 163 455 214 q 492 286 548 373 q 571 411 578 426 q 604 480 628 536 l 656 605 q 691 701 691 742 q 691 776 669 788 q 655 795 630 795 q 580 795 500 767 q 419 739 332 692 q 244 644 174 589 q 97 527 75 481 q 65 461 65 445 q 65 414 107 394 q 130 383 178 368 q 226 354 259 348 q 273 346 280 344 q 286 342 286 338 q 286 334 284 333 q 282 332 275 333 q 258 334 207 347 q 156 360 126 372 q 96 383 80 394 q 63 406 55 420 z"},"+":{"x_min":0,"x_max":181,"ha":181,"o":"m 158 457 q 156 455 127 457 l 99 458 l 96 452 l 82 419 q 67 386 67 385 q 61 374 54 382 q 52 385 54 392 q 57 400 66 420 l 79 452 l 79 453 q 79 456 52 456 q 36 456 30 456 q 23 457 21 460 q 18 466 24 468 q 30 469 57 471 l 89 473 l 103 505 l 119 539 q 119 540 121 540 q 123 540 126 538 q 129 535 129 533 q 129 527 118 502 l 106 473 q 106 472 129 472 q 153 472 157 470 q 160 468 160 463 q 161 458 158 457 z"},"G":{"x_min":0,"x_max":1003,"ha":1003,"o":"m 455 183 q 468 178 487 178 q 505 178 525 183 q 621 207 778 352 q 801 372 852 424 q 904 475 923 497 q 930 505 935 510 q 940 514 944 514 q 952 514 952 507 q 952 499 947 489 q 936 459 883 369 l 861 330 l 870 337 q 911 367 974 411 q 1036 455 1043 459 q 1045 460 1048 460 q 1056 460 1056 454 q 1056 451 1044 442 q 1031 432 1000 411 q 900 342 865 313 q 847 300 840 293 q 833 286 828 277 q 751 158 733 133 q 686 65 644 24 q 603 -18 580 -20 l 574 -21 q 571 -21 566 -16 q 562 -11 562 -3 q 562 19 596 68 q 624 108 684 170 q 744 233 805 284 q 818 295 824 302 q 829 309 842 330 q 883 398 909 446 l 923 472 l 858 408 q 793 344 754 310 q 715 275 672 244 q 614 201 570 182 q 526 163 488 163 q 416 163 400 230 q 397 242 397 254 l 397 257 q 397 263 396 266 q 395 269 391 269 q 388 269 368 264 q 310 249 258 249 q 208 249 172 262 q 123 278 92 311 q 62 344 53 388 q 50 402 50 412 q 50 424 54 425 l 55 425 q 59 425 61 420 q 63 415 65 402 q 69 375 79 355 q 89 335 108 316 q 134 291 172 278 q 211 264 257 264 q 269 264 293 266 q 309 267 338 273 q 368 279 383 284 q 393 287 395 288 q 397 290 398 296 q 399 302 401 311 q 403 320 405 328 q 421 392 464 468 q 506 544 571 621 q 592 647 634 689 q 675 731 701 754 q 797 837 890 885 q 982 933 1043 933 q 1068 933 1084 924 q 1113 910 1113 873 q 1113 847 1098 814 q 1066 745 986 659 q 906 573 797 492 q 713 428 616 372 q 520 317 440 287 l 412 276 l 411 264 q 410 236 422 214 q 434 191 455 183 z m 450 308 q 504 329 575 368 q 646 407 717 454 q 814 519 901 598 q 988 677 1039 747 q 1098 829 1098 874 q 1098 908 1067 915 q 1059 917 1049 917 q 1021 917 1007 914 q 909 894 782 798 q 662 709 567 590 q 503 511 464 437 q 425 363 414 300 q 413 295 414 294 q 415 294 424 298 q 434 301 450 308 z m 580 -6 q 584 -5 595 2 q 620 19 654 57 q 688 95 723 146 q 739 169 793 252 q 792 255 728 191 q 663 127 644 105 q 585 35 577 0 q 576 -4 576 -6 q 577 -7 580 -6 z"},"q":{"x_min":0,"x_max":234,"ha":234,"o":"m 222 417 l 144 361 l 71 308 l 47 292 l 23 246 l 28 239 q 38 225 38 202 q 38 160 2 89 q -23 39 -48 8 q -72 -22 -87 -22 q -92 -22 -95 -18 q -100 -13 -100 -4 l -98 12 q -85 70 -27 185 l 2 241 q 2 243 -8 248 q -17 252 -19 257 q -20 261 -13 268 q -6 274 13 287 l 35 302 l 50 330 l 83 388 l 104 424 q 104 424 104 424 q 105 425 105 425 q 105 427 96 418 q 85 405 83 400 q 82 394 77 392 q 72 392 51 371 q 13 336 -2 336 q -11 336 -16 342 q -22 349 -22 360 q -22 382 6 422 q 33 462 55 473 q 63 476 68 476 q 77 476 82 471 q 85 467 88 458 q 91 448 91 441 l 91 433 l 111 454 q 123 467 131 474 q 139 480 143 480 l 145 480 q 151 479 151 473 q 151 466 141 452 q 117 414 90 369 q 64 324 66 324 l 100 347 q 233 444 241 448 q 250 453 253 445 q 255 442 248 436 q 240 430 222 417 z m -68 9 q -41 36 -12 97 q 23 167 23 201 q 23 209 22 213 q 21 220 20 224 q 18 229 16 228 q 12 227 -5 192 q -60 88 -80 20 q -87 -5 -83 -5 q -80 -5 -68 9 z m -4 351 q -1 351 6 354 q 14 358 20 364 q 33 374 50 393 q 67 410 71 418 q 75 425 75 442 q 75 460 68 460 l 67 460 q 59 460 45 445 q 33 434 18 413 q 4 392 -1 378 q -5 370 -6 362 q -7 353 -5 351 z m 6 257 q 10 257 13 263 q 17 269 15 269 q 13 269 8 264 q 2 260 3 259 q 5 257 6 257 z"},"d":{"x_min":0,"x_max":165,"ha":165,"o":"m 221 638 q 180 570 154 520 q 129 470 100 403 q 43 267 43 241 q 43 227 38 227 q 35 227 31 231 q 29 234 28 238 q 27 241 28 248 q 30 265 51 322 q 72 379 97 436 l 105 455 q 104 455 85 428 q 52 379 31 356 q 10 334 -3 334 q -9 334 -13 338 q -20 345 -20 359 q -20 389 3 427 q 32 476 58 470 q 66 467 69 460 q 74 452 74 446 q 74 442 72 442 q 71 441 68 441 q 63 441 59 448 q 56 455 50 455 q 41 455 21 425 q -1 391 -4 363 q -5 356 -4 353 q -4 350 -1 350 q 6 350 32 382 q 58 414 87 458 q 175 593 197 632 q 238 703 245 706 l 247 707 q 253 707 255 700 q 256 697 221 638 z"},"1":{"x_min":0,"x_max":284,"ha":284,"o":"m 139 445 l 97 358 l 99 358 q 106 358 122 361 q 143 365 157 365 q 168 365 168 362 q 169 361 169 359 q 169 352 141 349 q 72 338 28 324 q 26 323 24 324 q 23 324 22 326 q 20 328 20 331 q 20 337 26 338 q 33 342 75 352 q 80 354 80 356 q 80 359 149 502 q 224 657 237 688 l 240 695 l 234 689 q 233 688 202 655 q 176 627 174 627 q 172 627 168 630 q 165 634 165 636 q 165 638 189 664 q 213 691 233 711 q 252 728 254 728 q 258 728 261 725 q 266 720 260 703 q 254 686 223 620 q 192 553 139 445 z"},"5":{"x_min":0,"x_max":381,"ha":381,"o":"m 150 578 q 152 578 168 584 q 194 592 217 592 q 256 592 273 576 q 291 561 291 535 q 291 513 277 483 q 257 445 218 407 q 181 372 142 352 q 103 331 70 330 l 57 329 q 51 329 41 334 q 20 345 20 367 q 20 394 50 424 q 60 434 82 450 q 103 466 116 473 q 127 480 133 480 q 138 480 138 474 l 138 472 q 138 469 136 467 q 133 465 127 462 q 114 455 92 438 q 69 421 59 410 q 35 386 35 366 q 35 356 42 350 q 49 344 63 344 q 83 344 113 356 q 143 368 170 387 q 196 406 223 436 q 250 465 263 488 q 276 516 276 535 q 276 556 262 567 q 249 577 218 577 q 203 577 188 574 q 175 571 156 562 q 138 553 131 546 q 124 539 123 539 q 121 539 118 542 q 116 545 115 547 q 115 550 141 599 q 195 703 195 707 l 188 706 q 183 705 177 705 q 174 706 172 710 q 170 714 172 716 q 173 718 180 720 q 188 722 193 722 q 197 722 203 725 q 209 727 226 727 l 301 729 l 345 730 q 357 730 360 727 q 363 724 360 720 q 359 718 353 717 q 347 716 334 716 q 307 716 270 714 q 234 712 223 710 l 214 709 l 180 643 q 147 576 150 578 z"}}}
